<svg id="Capa_1" enable-background="new 0 0 512 512" height="512" viewBox="0 0 512 512" width="512" xmlns="http://www.w3.org/2000/svg"><g><g><circle cx="424.585" cy="372.553" fill="#f1d0a5" r="52.033"/><path d="m450.466 327.42c4.382 7.624 6.9 16.456 6.9 25.88 0 28.737-23.296 52.033-52.033 52.033-9.425 0-18.256-2.519-25.88-6.9 8.978 15.623 25.82 26.152 45.132 26.152 28.737 0 52.033-23.296 52.033-52.033 0-19.311-10.529-36.153-26.152-45.132z" fill="#f1b986"/><path d="m337.171 466.211v35.487c0 5.69 4.612 10.302 10.302 10.302h154.226c5.69 0 10.302-4.612 10.302-10.302v-35.487c0-22.989-18.637-41.626-41.626-41.626h-91.577c-22.991 0-41.627 18.637-41.627 41.626z" fill="#c8ea73"/><path d="m470.374 424.585h-24.976c22.989 0 41.626 18.637 41.626 41.626v45.789h14.674c5.69 0 10.302-4.612 10.302-10.302v-35.487c0-22.989-18.637-41.626-41.626-41.626z" fill="#b7e445"/></g><g><circle cx="87.415" cy="372.553" fill="#f1d0a5" r="52.033"/><path d="m113.295 327.42c4.382 7.624 6.9 16.456 6.9 25.88 0 28.737-23.296 52.033-52.033 52.033-9.425 0-18.256-2.519-25.88-6.9 8.978 15.623 25.82 26.152 45.132 26.152 28.737 0 52.033-23.296 52.033-52.033 0-19.311-10.529-36.153-26.152-45.132z" fill="#f1b986"/><path d="m0 466.211v35.487c0 5.69 4.612 10.302 10.302 10.302h154.226c5.69 0 10.302-4.612 10.302-10.302v-35.487c0-22.989-18.637-41.626-41.626-41.626h-91.578c-22.989 0-41.626 18.637-41.626 41.626z" fill="#dd5790"/><path d="m133.203 424.585h-24.976c22.989 0 41.626 18.637 41.626 41.626v45.789h14.674c5.69 0 10.302-4.612 10.302-10.302v-35.487c0-22.989-18.636-41.626-41.626-41.626z" fill="#da387d"/></g><g><path d="m302.829 278.894h-93.659c-5.747 0-10.407-4.659-10.407-10.407v-12.487c0-5.747 4.659-10.407 10.407-10.407h93.659c5.747 0 10.407 4.659 10.407 10.407v12.488c0 5.747-4.659 10.406-10.407 10.406z" fill="#4073c8"/><path d="m302.829 245.593h-22.894c5.747 0 10.406 4.659 10.406 10.407v12.488c0 5.747-4.659 10.407-10.406 10.407h22.894c5.747 0 10.407-4.659 10.407-10.407v-12.488c0-5.747-4.659-10.407-10.407-10.407z" fill="#30579d"/><path d="m209.171 278.894v29.138c0 11.495 9.318 20.813 20.813 20.813h52.033c11.495 0 20.813-9.318 20.813-20.813v-29.138z" fill="#9dc6fb"/><path d="m278.894 278.894v29.138c0 11.495-9.318 20.813-20.813 20.813h23.935c11.495 0 20.813-9.318 20.813-20.813v-29.138z" fill="#80b4fb"/><path d="m366.983 110.983c0-61.294-49.688-110.982-110.982-110.983-61.175-.001-110.711 49.304-110.983 110.479-.201 45.24 26.671 84.22 65.343 101.689 5.277 2.383 8.644 7.663 8.644 13.453v19.972h73.988v-19.971c0-5.853 3.472-11.108 8.802-13.526 38.446-17.438 65.188-56.15 65.188-101.113z" fill="#f6e266"/><path d="m328.599 27.037c7.071 15.807 11.008 33.323 11.008 51.76 0 70.079-56.811 126.89-126.89 126.89-5.504 0-10.926-.351-16.245-1.031 4.427 2.819 9.067 5.333 13.89 7.512 5.277 2.384 8.644 7.663 8.644 13.453v19.972h73.988v-19.971c0-5.853 3.472-11.108 8.802-13.526 38.444-17.439 65.186-56.151 65.186-101.114.001-33.534-14.873-63.595-38.383-83.945z" fill="#f1d333"/></g><g fill="#b7e445"><path d="m380.878 483.461c-4.268 0-7.726 3.459-7.726 7.726v20.813h15.453v-20.813c0-4.267-3.459-7.726-7.727-7.726z"/><path d="m468.293 483.461c-4.268 0-7.726 3.459-7.726 7.726v20.813h15.453v-20.813c-.001-4.267-3.46-7.726-7.727-7.726z"/></g><g fill="#da387d"><path d="m43.707 483.461c-4.268 0-7.726 3.459-7.726 7.726v20.813h15.453v-20.813c0-4.267-3.459-7.726-7.727-7.726z"/><path d="m131.122 483.461c-4.268 0-7.726 3.459-7.726 7.726v20.813h15.453v-20.813c-.001-4.267-3.46-7.726-7.727-7.726z"/></g><path d="m263.726 245.594v-123.837c0-7.216 5.87-13.088 13.087-13.088 7.216 0 13.087 5.871 13.087 13.088 0 2.858-.903 5.572-2.613 7.848-2.562 3.412-1.874 8.256 1.538 10.818 1.39 1.044 3.019 1.549 4.634 1.548 2.347 0 4.666-1.065 6.184-3.087 3.735-4.973 5.709-10.896 5.709-17.128 0-15.737-12.803-28.54-28.539-28.54-8.202 0-15.602 3.483-20.813 9.042-5.211-5.559-12.611-9.042-20.813-9.042-15.736 0-28.539 12.803-28.539 28.54 0 6.231 1.974 12.155 5.709 17.128 1.518 2.021 3.837 3.088 6.184 3.087 1.615 0 3.243-.504 4.634-1.548 3.412-2.562 4.101-7.405 1.538-10.818-1.709-2.276-2.613-4.99-2.613-7.848 0-7.216 5.87-13.088 13.087-13.088 7.216 0 13.087 5.871 13.087 13.088v123.837z" fill="#e49542"/><g><path d="m375.675 310.555c-1.977 0-3.955-.755-5.464-2.263l-33.301-33.301c-3.017-3.018-3.017-7.909 0-10.928 3.018-3.016 7.909-3.016 10.928 0l33.301 33.301c3.017 3.018 3.017 7.909 0 10.928-1.509 1.509-3.487 2.263-5.464 2.263z" fill="#c8ea73"/></g><g><path d="m136.325 310.555c-1.977 0-3.955-.755-5.464-2.263-3.017-3.018-3.017-7.909 0-10.928l33.301-33.301c3.018-3.016 7.909-3.016 10.928 0 3.017 3.018 3.017 7.909 0 10.928l-33.301 33.301c-1.509 1.509-3.487 2.263-5.464 2.263z" fill="#dd5790"/></g></g></svg>