<svg id="Capa_1" enable-background="new 0 0 512.083 512.083" height="512" viewBox="0 0 512.083 512.083" width="512" xmlns="http://www.w3.org/2000/svg"><g><path d="m404.96 283.558c-16.71 47.88-60.78 66.05-85.65 77.05-49.59 21.93-51.64 29.63-60.11 54.25-6.6 19.17-15.63 45.42-45.12 74.08-32.63 31.71-86.04 30.73-119.06-2.29l-34.81-34.81-34.73-34.73c-32.99-32.99-34.02-86.4-2.29-119.05 28.66-29.49 54.91-38.53 74.08-45.12 27.09-9.33 33.54-13.26 54.25-60.12 15.57-35.21 34.67-70.86 77.06-85.65 18.41-6.42 33.96-4.54 43.8 5.3 5.86 5.86 5.86 15.35 0 21.21-29.44 29.45-20.83 41.83-16.32 47.32 5.31 5.31 21.39 21.39 37.49 37.49 16.12 16.12 32.26 32.26 37.58 37.58 5.49 4.51 17.88 13.12 47.32-16.32 5.86-5.86 15.36-5.86 21.21 0 9.84 9.84 11.73 25.4 5.3 43.81z" fill="#ff641a"/><path d="m404.96 283.558c-16.71 47.88-60.78 66.05-85.65 77.05-49.59 21.93-51.64 29.63-60.11 54.25-6.6 19.17-15.63 45.42-45.12 74.08-32.63 31.71-86.04 30.73-119.06-2.29l-34.81-34.81 233.34-233.35c16.12 16.12 32.26 32.26 37.58 37.58 5.49 4.51 17.88 13.12 47.32-16.32 5.86-5.86 15.36-5.86 21.21 0 9.84 9.84 11.73 25.4 5.3 43.81z" fill="#dd3400"/><path d="m430.79 123.768-169.01 169.01c-5.86 5.86-15.36 5.86-21.22 0l-10.65-10.65-10.55-10.55c-5.86-5.86-5.86-15.36 0-21.22l168.84-168.85 21.25 21.08z" fill="#575f64"/><path d="m430.79 123.768-169.01 169.01c-5.86 5.86-15.36 5.86-21.22 0l-10.65-10.65 179.54-179.54z" fill="#32393f"/><g><path d="m187.53 388.238c-5.86 5.86-15.35 5.86-21.21 0l-21.26-21.26-21.17-21.17c-5.86-5.85-5.86-15.35 0-21.21s15.36-5.86 21.21 0l21.17 21.17 21.26 21.26c5.86 5.86 5.86 15.35 0 21.21z" fill="#ececf1"/></g><path d="m187.53 388.238c-5.86 5.86-15.35 5.86-21.21 0l-21.26-21.26 21.21-21.21 21.26 21.26c5.86 5.86 5.86 15.35 0 21.21z" fill="#d3d3d8"/><g><path d="m229.96 345.808c-5.86 5.86-15.36 5.86-21.22 0l-21.25-21.25-21.17-21.17c-5.86-5.86-5.86-15.36 0-21.21 5.86-5.86 15.35-5.86 21.21 0l21.17 21.16 21.26 21.26c5.86 5.86 5.86 15.36 0 21.21z" fill="#ececf1"/></g><path d="m229.96 345.808c-5.86 5.86-15.36 5.86-21.22 0l-21.25-21.25 21.21-21.22 21.26 21.26c5.86 5.86 5.86 15.36 0 21.21z" fill="#d3d3d8"/><path d="m61.614 128.3c-3.705 7.41-.701 16.419 6.708 20.125 7.424 3.712 16.427.687 20.125-6.708l30-60c5.022-10.033-2.431-21.708-13.417-21.708h-35.729l19.146-38.292c3.705-7.41.701-16.419-6.708-20.125-7.41-3.705-16.42-.702-20.125 6.708l-30 60c-4.91 9.808 2.195 21.791 13.504 21.708h35.642z" fill="#ffdf8e"/><path d="m430.322 393.592-60 30c-7.41 3.705-10.413 12.715-6.708 20.125 3.706 7.411 12.717 10.413 20.125 6.708l38.292-19.146v35.729c0 10.992 11.606 18.439 21.708 13.417l60-30c7.41-3.705 10.413-12.715 6.708-20.125s-12.715-10.415-20.125-6.708l-38.292 19.146v-35.729c0-11.199-11.865-18.347-21.708-13.417z" fill="#ffb64c"/><g><circle cx="155.711" cy="441.272" fill="#32393f" r="15"/></g><g><path d="m507.63 4.408c-3.82-3.81-9.64-5.53-15.34-3.63l-63.64 21.21c-2.21.74-4.22 1.98-5.87 3.63l-42.42 42.42c-5.86 5.86-5.86 15.36 0 21.22l42.42 42.42c4.05 4.05 10 5.41 15.35 3.63l63.64-21.22c6.13-2.04 10.26-7.77 10.26-14.23v-84.85c0-4.22-1.71-7.93-4.4-10.6z" fill="#32393f"/></g><path d="m512.03 15.008v84.85c0 6.46-4.13 12.19-10.26 14.23l-63.64 21.22c-5.35 1.78-11.3.42-15.35-3.63l-21.21-21.21 106.06-106.06c2.69 2.67 4.4 6.38 4.4 10.6z" fill="#292929"/></g></svg>