<svg id="Capa_1" enable-background="new 0 0 512 512" height="512" viewBox="0 0 512 512" width="512" xmlns="http://www.w3.org/2000/svg"><path d="m284.511 440.054c-3.793-1.663-8.217.067-9.88 3.86-2.974 6.788-9.682 11.175-17.091 11.175h-21.172c-4.143 0-7.5 3.358-7.5 7.5v15.765c0 10.281-8.364 18.646-18.645 18.646s-18.646-8.365-18.646-18.646v-15.765c0-4.142-3.357-7.5-7.5-7.5h-21.172c-10.281 0-18.646-8.364-18.646-18.646 0-10.281 8.364-18.646 18.646-18.646h21.172c4.143 0 7.5-3.358 7.5-7.5v-73.476c0-3.515-2.44-6.558-5.871-7.321-24.634-5.48-47.034-19.369-63.075-39.11-16.268-20.02-25.227-45.241-25.227-71.018 0-35.624 17.183-69.576 45.964-90.821 3.333-2.46 4.04-7.156 1.58-10.488s-7.156-4.04-10.488-1.58c-32.596 24.062-52.056 62.525-52.056 102.89 0 29.212 10.151 57.792 28.585 80.477 16.882 20.775 39.994 35.829 65.588 42.836v60.111h-13.672c-18.552 0-33.646 15.094-33.646 33.646s15.094 33.646 33.646 33.646h13.672v8.265c0 18.552 15.094 33.646 33.646 33.646s33.645-15.094 33.645-33.646v-8.265h13.672c13.365 0 25.467-7.912 30.831-20.156 1.662-3.794-.066-8.217-3.86-9.879zm-74.288-145.154c41.645 0 75.526-33.881 75.526-75.527s-33.881-75.527-75.526-75.527c-41.646 0-75.527 33.881-75.527 75.527-.001 41.646 33.881 75.527 75.527 75.527zm0-136.054c33.374 0 60.526 27.152 60.526 60.527s-27.152 60.527-60.526 60.527c-33.375 0-60.527-27.152-60.527-60.527-.001-33.375 27.152-60.527 60.527-60.527zm185.727-158.846h-57.285c-18.552 0-33.646 15.093-33.646 33.646 0 11.753 6.062 22.111 15.219 28.13l-46.632 46.632c-19.266-11.044-41.052-16.853-63.384-16.853-14.295 0-28.342 2.356-41.75 7.002-3.914 1.356-5.987 5.628-4.632 9.542 1.357 3.914 5.629 5.985 9.542 4.631 11.826-4.098 24.221-6.175 36.84-6.175 21.495 0 42.414 6.098 60.497 17.634 1.24.791 2.641 1.177 4.031 1.177 1.938 0 3.858-.749 5.307-2.197l55.99-55.989c.865.067 1.736.112 2.617.112h23.64v23.638c0 .882.045 1.753.112 2.619l-55.991 55.99c-2.487 2.488-2.911 6.371-1.019 9.337 11.536 18.082 17.634 39.002 17.634 60.497 0 25.777-8.959 50.998-25.226 71.018-16.041 19.741-38.442 33.63-63.075 39.11-3.431.764-5.871 3.807-5.871 7.321v73.476c0 4.142 3.357 7.5 7.5 7.5h21.172c3.888 0 7.61 1.183 10.766 3.42 1.317.934 2.831 1.382 4.331 1.382 2.35 0 4.663-1.101 6.125-3.163 2.396-3.379 1.599-8.06-1.78-10.456-5.706-4.044-12.429-6.183-19.441-6.183h-13.672v-60.111c25.594-7.008 48.706-22.061 65.587-42.836 18.434-22.685 28.586-51.266 28.586-80.477 0-22.333-5.809-44.118-16.852-63.383l46.633-46.632c6.019 9.156 16.377 15.218 28.129 15.218 18.552 0 33.646-15.093 33.646-33.646v-57.285c-.002-18.553-15.096-33.646-33.648-33.646zm18.646 90.93c0 10.281-8.364 18.646-18.646 18.646-10.281 0-18.646-8.364-18.646-18.646v-31.138c0-4.142-3.357-7.5-7.5-7.5h-31.14c-10.281 0-18.646-8.365-18.646-18.646s8.364-18.646 18.646-18.646h57.285c10.281 0 18.646 8.364 18.646 18.646v57.284z"/></svg>