<svg id="Capa_1" enable-background="new 0 0 512 512" height="512" viewBox="0 0 512 512" width="512" xmlns="http://www.w3.org/2000/svg"><g><path d="m266.846 180.136c47.819 0 86.723 38.904 86.723 86.723 0 23.903-9.721 45.578-25.417 61.281l10.836 52.86 150.169 108.144 22.83-22.83-30.457-30.457 30.457-30.457-45.686-45.686-30.457 30.457-41.625-41.625c4.866-7.561 9.033-15.509 12.45-23.771l74.119-178.937-59.701-24.729-26.665 64.374c-5.857-9.15-12.741-17.734-20.604-25.597-14.12-14.119-30.597-25.138-48.974-32.75-46.588-19.297-98.524-14.098-139.655 12.354l-74.88-74.88h61.945v-64.61h-172.241l150.309 177.667 55.244 27.886c15.702-15.697 37.377-25.417 61.28-25.417z" fill="#ff9f22"/><path d="m328.152 328.139c-15.704 15.711-37.39 25.442-61.306 25.442-47.819 0-86.723-38.904-86.723-86.723 0-23.916 9.731-45.602 25.442-61.306l-205.552-205.552v172.292h64.61v-61.997l74.86 74.86c-4.87 7.566-9.041 15.519-12.46 23.786l-74.118 178.938 59.701 24.729 26.665-64.374c5.857 9.15 12.741 17.734 20.604 25.597 14.12 14.119 30.597 25.138 48.974 32.75 46.594 19.3 98.537 14.097 139.67-12.364l41.64 41.64-30.457 30.457 45.685 45.686 30.457-30.457 30.457 30.457 22.856-22.856z" fill="#ffd422"/></g></svg>