<svg height="448pt" viewBox="0 -16 448.00002 448" width="448pt" xmlns="http://www.w3.org/2000/svg"><path d="m336 .00390625c-46.351562.21093775-87.839844 28.80859375-104.527344 72.05468775-1.183594 3.097656-4.15625 5.140625-7.472656 5.140625s-6.289062-2.042969-7.472656-5.140625c-19.242188-50.46875-71.78125-80-124.898438-70.203125-53.117187 9.800781-91.660156 56.132812-91.628906 110.148437 0 131.65625 164 304 224 304s224-172.34375 224-304c-.066406-61.828125-50.171875-111.9335935-112-111.99999975zm-224 151.99999975c0 4.417969-3.582031 8-8 8s-8-3.582031-8-8c0-22.09375 17.910156-40 40-40s40 17.90625 40 40c0 4.417969-3.582031 8-8 8s-8-3.582031-8-8c0-13.253906-10.746094-24-24-24s-24 10.746094-24 24zm180.800781 121.597656c3.535157 2.652344 4.25 7.667969 1.597657 11.203126-2.648438 3.53125-7.664063 4.25-11.199219 1.597656-9.03125-7.074219-16.503907-15.933594-21.953125-26.03125-10.753906 7.957031-23.875 12.054687-37.246094 11.632812-13.375.429688-26.503906-3.664062-37.265625-11.617187-5.441406 10.089843-12.910156 18.945312-21.933594 26.015625-3.535156 2.652344-8.550781 1.933594-11.199219-1.597656-2.652343-3.535157-1.9375-8.550782 1.597657-11.203126.199219-.144531 20.800781-15.839843 20.800781-33.597656 0-17.601562-20.574219-33.433594-20.800781-33.601562-3.535157-2.648438-4.25-7.664063-1.597657-11.199219 2.648438-3.535156 7.664063-4.25 11.199219-1.601563 1.109375.800782 27.199219 20.601563 27.199219 46.402344 0 7.550782 13.6875 16 32 16s32-8.449218 32-16c0-25.816406 26.105469-45.601562 27.199219-46.402344 3.535156-2.648437 8.550781-1.933593 11.199219 1.601563 2.652343 3.535156 1.9375 8.550781-1.597657 11.199219-.214843.152344-20.800781 15.847656-20.800781 33.601562 0 17.597656 20.574219 33.429688 20.800781 33.597656zm51.199219-113.597656c-4.417969 0-8-3.582031-8-8 0-13.253906-10.746094-24-24-24s-24 10.746094-24 24c0 4.417969-3.582031 8-8 8s-8-3.582031-8-8c0-22.09375 17.910156-40 40-40s40 17.90625 40 40c0 4.417969-3.582031 8-8 8zm0 0"/></svg>