<?xml version="1.0" encoding="utf-8"?>
<!-- Generator: Adobe Illustrator 23.0.3, SVG Export Plug-In . SVG Version: 6.00 Build 0)  -->
<svg version="1.1" id="OBJECTS" xmlns="http://www.w3.org/2000/svg" xmlns:xlink="http://www.w3.org/1999/xlink" x="0px" y="0px"
	 viewBox="0 0 150 150" style="enable-background:new 0 0 150 150;" xml:space="preserve">
<style type="text/css">
	.st0{fill:#979BC2;}
	.st1{fill:#DF8BB0;}
	.st2{fill:#BA7493;}
	.st3{fill:#FFFFFF;}
	.st4{fill:#F6D7CA;}
	.st5{fill:#E8BBA3;}
	.st6{fill:#FFC4DF;}
	.st7{fill:#E8B2CB;}
	.st8{fill:#756468;}
	.st9{fill:#887478;}
	.st10{fill:none;stroke:#887478;stroke-width:0.279;stroke-miterlimit:10;}
	.st11{fill:#BFA3A9;}
	.st12{fill:#FFFCF4;}
	.st13{fill:#F6C8C0;}
	.st14{fill:none;}
</style>
<g>
	<path class="st0" d="M132.76,61.99c0,27.85-26.95,47.89-58.14,47.89S10,83.25,10,55.41S56.42,7,87.61,7S132.76,34.14,132.76,61.99z
		"/>
	<g>
		<g>
			<g>
				<path class="st0" d="M25.86,91.92c-0.01,0.05-0.4,0.01-1-0.29c-0.59-0.31-1.37-0.89-2.22-1.71c-1.7-1.63-3.72-4.18-5.66-7.17
					c-1.94-2.99-3.45-5.85-4.34-8.02c-0.44-1.09-0.73-2-0.84-2.67c-0.12-0.66-0.01-1.06,0.05-1.04c0.07,0.01,0.08,0.35,0.3,0.95
					c0.21,0.6,0.57,1.45,1.08,2.48c1.03,2.06,2.6,4.84,4.52,7.79c1.91,2.96,3.82,5.52,5.35,7.22c0.77,0.85,1.45,1.47,1.95,1.86
					C25.56,91.7,25.88,91.85,25.86,91.92z"/>
			</g>
		</g>
	</g>
	<g>
		<g>
			<g>
				<path class="st0" d="M13.28,42.83c-0.05-0.01,0-0.68,0.28-1.86c0.27-1.18,0.83-2.87,1.82-4.81c1-1.93,2.44-4.12,4.36-6.26
					c1.92-2.14,4.32-4.26,7.09-6.08c5.45-3.7,10.71-6.57,14.66-8.31c1.97-0.88,3.61-1.5,4.76-1.88c1.15-0.38,1.8-0.54,1.82-0.48
					c0.05,0.14-2.45,1.06-6.3,2.95c-3.85,1.88-9.01,4.81-14.42,8.49c-5.46,3.56-9.33,8.17-11.39,11.88
					C13.87,40.19,13.46,42.88,13.28,42.83z"/>
			</g>
		</g>
	</g>
	<g>
		<g>
			<g>
				<path class="st0" d="M11.05,35.64c-0.03-0.01,0.07-0.26,0.3-0.73c0.24-0.45,0.52-1.17,1.06-1.98c1.02-1.67,2.77-3.92,5.29-6.36
					c5.04-4.86,13.12-10.36,22.9-14.65c4.93-2.09,9.83-3.46,14.3-4.57c4.48-1.08,8.56-1.86,12.01-2.37c3.45-0.52,6.26-0.79,8.2-0.91
					c0.97-0.06,1.73-0.08,2.24-0.08c0.51,0,0.78,0.02,0.78,0.05c0,0.08-1.07,0.16-3,0.39c-1.93,0.23-4.71,0.6-8.13,1.2
					c-3.42,0.59-7.47,1.43-11.91,2.55c-4.43,1.15-9.29,2.55-14.14,4.6c-9.67,4.24-17.74,9.6-22.81,14.27
					c-2.54,2.35-4.34,4.49-5.43,6.08C11.64,34.73,11.13,35.68,11.05,35.64z"/>
			</g>
		</g>
	</g>
	<g>
		<g>
			<g>
				<path class="st0" d="M134.34,46.17c-0.14,0.02-0.43-1.62-1.27-4.15c-0.82-2.54-2.23-5.96-3.98-9.66
					c-1.71-3.75-3.18-7.13-4.62-9.37c-1.4-2.27-2.56-3.46-2.46-3.57c0.07-0.08,1.42,0.97,3,3.2c1.62,2.2,3.22,5.63,4.91,9.34
					c1.76,3.72,3.1,7.23,3.77,9.87C134.39,44.46,134.45,46.16,134.34,46.17z"/>
			</g>
		</g>
	</g>
	<g>
		<g>
			<g>
				<path class="st0" d="M134.47,80.33c-0.07-0.05,0.44-0.83,1.17-2.3c0.7-1.5,1.47-3.78,2.04-6.69c1.09-5.83,1.37-14.12,0.31-23.13
					c-0.26-2.25-0.61-4.44-1.12-6.49c-0.53-2.06-1.16-4.04-1.78-5.9c-1.26-3.73-2.61-7.01-3.87-9.7c-1.27-2.69-2.44-4.79-3.3-6.22
					c-0.85-1.43-1.38-2.19-1.31-2.24c0.03-0.02,0.18,0.15,0.46,0.49c0.28,0.34,0.68,0.86,1.15,1.55c0.96,1.38,2.23,3.45,3.58,6.13
					c1.34,2.68,2.77,5.97,4.08,9.71c0.65,1.88,1.3,3.85,1.85,5.95c0.54,2.12,0.89,4.33,1.16,6.61c1.07,9.1,0.68,17.48-0.59,23.37
					c-0.67,2.94-1.55,5.24-2.36,6.72c-0.37,0.76-0.82,1.26-1.06,1.63C134.65,80.17,134.5,80.35,134.47,80.33z"/>
			</g>
		</g>
	</g>
	<g>
		<g>
			<g>
				<path class="st0" d="M116.22,95.29c-0.03-0.05,0.48-0.44,1.44-1.07c0.95-0.64,2.38-1.5,4-2.71c0.81-0.61,1.65-1.32,2.48-2.17
					c0.82-0.84,1.64-1.84,2.49-2.88c1.7-2.09,3.32-4.52,4.53-7.4c1.29-2.83,2.34-5.6,3.09-8.18c0.75-2.58,1.2-4.96,1.38-6.98
					c0.38-4.05-0.29-6.54-0.12-6.57c0.05-0.01,0.26,0.59,0.5,1.73c0.21,1.14,0.38,2.82,0.28,4.89c-0.1,2.07-0.49,4.52-1.21,7.16
					c-0.72,2.64-1.76,5.47-3.07,8.33c-0.64,1.42-1.33,2.84-2.15,4.09c-0.81,1.26-1.69,2.41-2.56,3.46
					c-0.88,1.04-1.72,2.02-2.61,2.89c-0.88,0.85-1.79,1.56-2.64,2.15c-1.71,1.18-3.19,1.95-4.2,2.49
					C116.82,95.07,116.25,95.34,116.22,95.29z"/>
			</g>
		</g>
	</g>
</g>
<path class="st1" d="M68.93,43.3c-0.9,4.13-3.96,7.24-7.31,7.77c-0.66,0.11-1.34,0.11-2.01,0c-2.9-0.47-4.96-2.92-5.52-6.07
	c-0.23-1.28-0.21-2.67,0.1-4.1c1.08-4.95,5.25-8.43,9.32-7.77C67.58,33.8,70.01,38.35,68.93,43.3z"/>
<ellipse transform="matrix(0.3841 -0.9233 0.9233 0.3841 0.2307 85.7823)" class="st2" cx="64.41" cy="42.72" rx="8.12" ry="6.5"/>
<g>
	<g>
		<g>
			<path class="st3" d="M54.25,43.24c-0.12,0-0.27-0.59-0.18-1.54c0.08-0.95,0.42-2.26,1.09-3.55c0.31-0.65,0.78-1.26,1.19-1.71
				c0.42-0.46,0.78-0.84,1.12-1.18c0.68-0.69,1.28-0.92,1.34-0.8c0.06,0.11-0.34,0.48-0.84,1.23c-0.49,0.79-1.42,1.71-1.98,2.89
				C54.68,40.99,54.49,43.23,54.25,43.24z"/>
		</g>
	</g>
</g>
<path class="st2" d="M61.62,51.07c-0.66,0.11-1.34,0.11-2.01,0c-2.9-0.47-4.96-2.92-5.52-6.07c0.3,1.1,1.55,3.73,5.38,2.17
	C61.47,46.36,63.26,49.1,61.62,51.07z"/>
<g>
	<path class="st4" d="M39.14,85.01l-2.42-0.86l-6.9-2.44c0,0-1.5-4.57-1.59-4.82c-0.1-0.25-7.1-8.42-6.2-10.18
		c0.9-1.76,9.98-10.02,12.82-10.75c2.84-0.73,1.33,2.37-3.3,6.21c0,0,3.64-1.17,3.69,1.05c0.04,1.6-1.3,2.43-1.3,2.43
		s2.34-0.38,2.72,0.87c0.14,0.48,0.38,0.93-0.42,2.1c0,0,1.66-0.24,2.03,0.86c0.38,1.1-1.2,2.18-1.2,2.18s0.9,0.67,0.75,3.09
		c-0.02,0.32-0.06,0.67-0.12,1.05c-0.37,2.25,0.44,5.74,0.99,7.71C38.95,84.43,39.14,85.01,39.14,85.01z"/>
	<path class="st4" d="M29,61.98c0,0-0.7-3.11-1.48-5.08c-0.29-0.74,0.11-1.55,0.94-1.87h0c0.81-0.31,1.75-0.04,2.19,0.62
		c0.53,0.78,1.06,1.95,0.94,3.39C31.35,61.77,29,61.98,29,61.98z"/>
	<g>
		<g>
			<g>
				<path class="st5" d="M28.46,60.35c-0.12-0.04-0.07-0.41,0.25-0.78c0.3-0.38,0.83-0.75,1.28-1.13c0.44-0.4,0.67-0.77,0.75-1.14
					c0.09-0.38,0.13-0.68,0.27-0.7c0.12-0.02,0.31,0.21,0.39,0.72c0.04,0.25,0.02,0.59-0.13,0.93c-0.15,0.34-0.36,0.62-0.66,0.89
					c-0.58,0.49-1.11,0.73-1.47,0.94C28.77,60.25,28.58,60.4,28.46,60.35z"/>
			</g>
		</g>
	</g>
	<g>
		<g>
			<g>
				<path class="st5" d="M28.16,64.95c-0.14-0.21,0.53-0.93,1.46-1.71c0.94-0.77,1.76-1.29,1.94-1.12c0.2,0.18-0.4,1.05-1.35,1.84
					C29.26,64.75,28.3,65.16,28.16,64.95z"/>
			</g>
		</g>
	</g>
	<g>
		<g>
			<g>
				<path class="st5" d="M30.49,68.23c-0.1-0.24,0.84-0.87,1.9-1.72c1.08-0.84,1.87-1.62,2.09-1.48c0.22,0.13-0.33,1.28-1.51,2.21
					C31.8,68.18,30.58,68.47,30.49,68.23z"/>
			</g>
		</g>
	</g>
	<g>
		<g>
			<g>
				<path class="st5" d="M33,71.07c-0.09-0.23,0.6-0.79,1.48-1.5c0.88-0.7,1.75-1.18,1.91-0.96c0.14,0.19-0.41,0.95-1.34,1.7
					C34.12,71.05,33.1,71.32,33,71.07z"/>
			</g>
		</g>
	</g>
	<g>
		<g>
			<g>
				<path class="st5" d="M35.72,73.22c-0.23-0.15,0.02-0.71,0.45-1.03c0.42-0.32,0.73-0.46,0.97-0.37c0.26,0.1,0.09,0.74-0.39,1.09
					C36.3,73.26,35.93,73.36,35.72,73.22z"/>
			</g>
		</g>
	</g>
	<path class="st5" d="M38.69,83.52c-0.61,0.29-1.27,0.51-1.97,0.64l-6.9-2.44c0,0-1.5-4.57-1.59-4.82c-0.1-0.25-7.1-8.42-6.2-10.18
		c0,0,6.59,9.5,15.79,8.05c-0.02,0.32-0.06,0.67-0.12,1.05C37.34,78.06,38.15,81.55,38.69,83.52z"/>
</g>
<path class="st3" d="M-206.17-76.35"/>
<path class="st6" d="M129.76,125.65c-3.14,36.66-100.27,11.81-101.24-1.7c-0.07-1.06,2.51-43.09,32.17-52.93
	c0.04-0.02,0.08-0.03,0.12-0.04c1.91-0.63,3.93-1.12,6.08-1.46c17.26-2.75,33.28-4.01,44.38,2.77c0.08,0.05,0.15,0.1,0.23,0.14
	c1.97,1.22,3.78,2.71,5.41,4.49C126.44,87.32,131.51,105.28,129.76,125.65z"/>
<path class="st7" d="M111.27,72.29c-3.11,2.92-8.18,5.67-11.22,6.5c-5.22,1.42-15.44,4.21-20.66,4.85
	c-5.22,0.65-5.42-1.88-14.78-7.3c-3.78-2.19-3.47-3.89-3.92-5.33c0.04-0.02,0.08-0.03,0.12-0.04c1.91-0.63,3.93-1.12,6.08-1.46
	C84.14,66.77,100.16,65.51,111.27,72.29z"/>
<path class="st1" d="M65.16,73.84c-5.01-3.66-3.53-10.67,2.67-12.53c15.78-4.74,32.15-5.93,40.33,3.08
	c10.36,11.42-23.76,17.35-30.37,18.38c-0.63,0.1-1.27-0.08-1.71-0.49C75.06,81.34,72.34,79.09,65.16,73.84z"/>
<path class="st1" d="M26.78,82.02c0,0-0.21-3.84,0.03-4.01c0.17-0.12,4.58-2.55,11.05-1.39c1.59,0.28,1.68,2.22,1.67,4.17
	C39.52,87.74,26.78,82.02,26.78,82.02z"/>
<path class="st6" d="M24.05,82.47c0.01-1.18,0.89-2.21,2.18-2.57c3.43-0.94,10.08-2.22,14.44,0.46c6.1,3.75,18.55,39.52,10.09,48.18
	C42.3,137.2,29.05,130,23.1,115.18C17.4,100.99,23.98,96.14,24.05,82.47z"/>
<g>
	<g>
		<g>
			<path class="st1" d="M49.19,115.14c-0.01,0.04-0.52-0.06-1.21-0.66c-0.67-0.6-1.42-1.71-1.94-3.2
				c-1.09-2.98-1.54-7.32-1.64-12.05c-0.05-2.37-0.01-4.62,0.02-6.67c0.05-2.05,0.04-3.85-0.19-5.37c-0.37-3.04-1.56-4.62-1.43-4.7
				c0.04-0.03,0.4,0.31,0.85,1.07c0.44,0.76,0.94,1.97,1.23,3.52c0.15,0.78,0.26,1.62,0.32,2.55c0.05,0.92,0.06,1.9,0.07,2.92
				c0.01,2.05,0,4.29,0.05,6.64c0.09,4.69,0.44,8.96,1.33,11.86c0.42,1.46,1.03,2.53,1.58,3.16
				C48.79,114.85,49.23,115.06,49.19,115.14z"/>
		</g>
	</g>
</g>
<g>
	<g>
		<g>
			<path class="st1" d="M77.46,86.81c-0.27,0.01-0.44-0.79-0.48-1.68c-0.04-0.88-0.12-1.58,0.1-1.7c0.23-0.13,0.78,0.62,0.82,1.64
				C77.95,86.06,77.71,86.8,77.46,86.81z"/>
		</g>
	</g>
</g>
<g>
	<g>
		<g>
			<path class="st1" d="M106.55,133.05c-0.06,0.03-0.36-0.45-0.85-1.35c-0.24-0.45-0.46-1.05-0.75-1.72
				c-0.13-0.34-0.23-0.72-0.35-1.12c-0.13-0.4-0.24-0.82-0.32-1.28c-0.4-1.81-0.59-4.02-0.46-6.46c0.12-2.44,0.52-5.08,1-7.82
				c0.49-2.74,0.95-5.34,1.2-7.7c0.22-2.36,0.12-4.51-0.09-6.3c-0.43-3.59-1.1-5.75-0.95-5.79c0.06-0.02,0.29,0.5,0.6,1.48
				c0.31,0.98,0.7,2.41,0.99,4.23c0.29,1.81,0.47,4.02,0.29,6.46c-0.2,2.43-0.65,5.05-1.14,7.79c-0.48,2.73-0.9,5.33-1.06,7.71
				c-0.17,2.37-0.06,4.52,0.25,6.28C105.5,131.01,106.75,132.96,106.55,133.05z"/>
		</g>
	</g>
</g>
<path class="st2" d="M71.05,76.51c-3.98-3.39-3.07-9.47,2.48-9.99c5.74-0.54,16.02-0.84,18.39,0.87c3.63,2.62-2.62,8.81-10.79,11.25
	C77.34,79.77,73.53,78.63,71.05,76.51z"/>
<g>
	<g>
		<g>
			<path class="st5" d="M73.88,58.06c0.13,0.22-0.25,0.66-0.89,0.78c-0.64,0.15-1.24-0.21-1.11-0.46c0.11-0.23,0.44-0.34,0.93-0.45
				C73.31,57.84,73.76,57.84,73.88,58.06z"/>
		</g>
	</g>
</g>
<path class="st8" d="M90.68,21.88c0,0,13.68,0.58,12.1,16.26C101.01,55.82,84.93,62.1,84.93,62.1L90.68,21.88z"/>
<path class="st4" d="M88.13,73.46c-1.02,1.48-2.52,2.49-4.23,3.12c-6.25,2.3-15.26-0.65-13.53-5.03c0.85-2.14,0.94-4.26,0.72-6.05
	c-0.34-2.88-1.46-4.93-1.46-4.93l20.15-8.59C89.78,51.97,92.91,66.53,88.13,73.46z"/>
<path class="st5" d="M88.13,73.46c-1.02,1.48-2.52,2.49-4.23,3.12c-0.2-4.94,1.61-11.42-2.04-10.97c-4.25,0.53-8.57,0.16-10.77-0.11
	c-0.34-2.88-1.46-4.93-1.46-4.93l20.15-8.59C89.78,51.97,92.91,66.53,88.13,73.46z"/>
<path class="st4" d="M60.21,29.44c0,0,1.8,6.95,0.27,15.11c-1.54,8.15-0.26,17.24,8.98,19.65c8.4,2.19,19.51-2.51,22.17-12.53
	c2.66-10.02,0.79-21.6,0.51-21.95S67.61,27.57,60.21,29.44z"/>
<path class="st4" d="M91.09,45.13c0,0,1.79-3.96,5.09-2.94c3.3,1.02,1.55,8.35-4.55,9.48"/>
<path class="st9" d="M67.87,26.9c0,0,0.43,8.68,9.92,10.32c9.48,1.64,13.59,6.13,13.49,10.13c0,0,5.05-13.04,1.2-18.74
	C88.63,22.92,67.87,26.9,67.87,26.9z"/>
<path class="st9" d="M68.84,24.48c0,0-1.61,6.56,1.12,11.21c0.23,0.39-0.27,0.79-0.7,0.56c-2.43-1.29-6.58-4.01-6.28-7.4
	c0,0-0.04,3.04,2.55,6.47c0.22,0.3-0.13,0.66-0.5,0.52c-2.77-1.07-8.86-4.07-7.03-9.29C60.34,19.84,68.84,24.48,68.84,24.48z"/>
<path class="st9" d="M62.43,25.27c0,0,2.03-6.08,14.7-6.31c12.67-0.23,25.78,5.46,18.44,25.75c0,0-8.54-10.81-14.98-13.58
	S62.43,25.27,62.43,25.27z"/>
<g>
	<g>
		<path class="st10" d="M71.83,43.22"/>
	</g>
</g>
<g>
	<g>
		<g>
			<path class="st5" d="M73.27,50.38c0.05,0.14-0.52,0.39-1.44,0.4c-0.23,0-0.48,0-0.78-0.05c-0.31-0.03-0.78-0.34-0.9-0.76
				c-0.26-0.81,0.09-1.52,0.26-2.11c0.41-1.25,0.67-2.39,0.79-3.23c0.12-0.84,0.16-1.39,0.29-1.41c0.12-0.01,0.32,0.52,0.36,1.44
				c0.05,0.91-0.13,2.19-0.56,3.48c-0.1,0.33-0.23,0.65-0.29,0.89c-0.07,0.26-0.09,0.52-0.04,0.67c0.05,0.15,0.08,0.21,0.28,0.28
				c0.2,0.07,0.43,0.11,0.64,0.14C72.72,50.27,73.23,50.27,73.27,50.38z"/>
		</g>
	</g>
</g>
<g>
	<g>
		<g>
			<path class="st5" d="M76.15,55.52c0.04,0.12-0.47,0.42-1.38,0.67c-0.9,0.25-2.23,0.44-3.69,0.19c-1.45-0.24-2.7-0.93-3.34-1.68
				c-0.66-0.76-0.73-1.4-0.63-1.43c0.13-0.06,0.41,0.44,1.08,0.96c0.66,0.53,1.75,1.02,3.05,1.24
				C73.86,55.9,76.08,55.24,76.15,55.52z"/>
		</g>
	</g>
</g>
<g>
	<g>
		<g>
			<path class="st9" d="M68.93,39.75c-0.16,0.21-0.52,0.21-0.94,0.23c-0.43,0.01-0.97,0.03-1.59,0.09c-1.25,0.1-2.22,0.45-2.6,0.1
				c-0.17-0.18-0.09-0.6,0.34-1.03c0.42-0.43,1.17-0.82,2.07-0.91c0.9-0.1,1.75,0.15,2.24,0.53C68.97,39.14,69.09,39.56,68.93,39.75
				z"/>
		</g>
	</g>
</g>
<g>
	<g>
		<g>
			<path class="st9" d="M85.18,42.73c-0.25,0.1-0.55-0.06-0.92-0.21c-0.37-0.16-0.85-0.35-1.43-0.54c-1.16-0.4-2.22-0.5-2.39-0.99
				c-0.07-0.24,0.18-0.57,0.74-0.78c0.55-0.21,1.37-0.27,2.22,0.01c0.85,0.27,1.54,0.84,1.82,1.42
				C85.52,42.21,85.41,42.65,85.18,42.73z"/>
		</g>
	</g>
</g>
<g>
	<g>
		<g>
			<path class="st11" d="M80.14,35.21c-0.04,0.1-0.97-0.01-2.44-0.54c-1.45-0.51-3.42-1.5-5.13-3.21c-1.69-1.74-2.55-3.86-2.77-5.39
				c-0.16-0.77-0.13-1.4-0.11-1.84c0.02-0.43,0.07-0.67,0.13-0.67c0.06,0,0.14,0.23,0.23,0.65c0.09,0.41,0.16,1.01,0.39,1.72
				c0.37,1.42,1.24,3.28,2.8,4.89c1.58,1.58,3.38,2.61,4.72,3.26C79.3,34.72,80.19,35.07,80.14,35.21z"/>
		</g>
	</g>
</g>
<g>
	<g>
		<g>
			<path class="st11" d="M81.76,34.83c-0.07,0.11-0.76-0.2-1.82-0.8c-1.05-0.61-2.52-1.49-3.87-2.87c-0.67-0.69-1.22-1.44-1.61-2.17
				c-0.39-0.72-0.7-1.4-0.88-2.01c-0.39-1.22-0.19-2.06-0.07-2.03c0.13,0.01,0.17,0.74,0.68,1.8c0.52,1.05,1.31,2.51,2.55,3.77
				c1.24,1.28,2.61,2.23,3.56,2.97C81.27,34.21,81.84,34.72,81.76,34.83z"/>
		</g>
	</g>
</g>
<g>
	<g>
		<g>
			<path class="st11" d="M60.2,31.32c-0.1,0.06-0.47-0.32-0.75-1.09c-0.28-0.76-0.46-1.92-0.18-3.18c0.25-1.27,1.17-2.28,1.97-2.58
				c0.81-0.31,1.34-0.19,1.34-0.09c0.02,0.15-0.45,0.28-1.03,0.66c-0.57,0.4-1.15,1.15-1.38,2.22c-0.24,1.05-0.19,2.09-0.09,2.81
				C60.18,30.81,60.32,31.26,60.2,31.32z"/>
		</g>
	</g>
</g>
<g>
	<g>
		<g>
			<path class="st11" d="M66.86,33.58c-0.06,0.09-0.67-0.18-1.3-1.02c-0.62-0.83-1.15-2.19-1.3-3.72c-0.16-1.54,0.02-2.94,0.34-3.91
				c0.17-0.48,0.37-0.87,0.59-1.09c0.22-0.24,0.45-0.24,0.46-0.18c0.02,0.07-0.08,0.15-0.16,0.38c-0.09,0.23-0.18,0.59-0.25,1.04
				c-0.14,0.92-0.21,2.23-0.06,3.65c0.14,1.42,0.52,2.66,0.94,3.48C66.54,33.04,66.95,33.47,66.86,33.58z"/>
		</g>
	</g>
</g>
<path class="st8" d="M65.01,22.5c0,0,15.71-3.06,22.56,3.06c6.85,6.13,5.67,11.95,5.67,11.95s-6.02,2.25-3.31,7.56
	c2.72,5.31,6.02-9.91,6.02-10.32C95.95,34.35,102.68,13.1,65.01,22.5z"/>
<g>
	<path class="st1" d="M102.35,47.96c-0.42,1.93-1.31,3.64-2.49,4.96c-1.83,2.07-4.35,3.21-6.83,2.8c-4.07-0.66-6.49-5.22-5.41-10.17
		c0.33-1.5,0.94-2.87,1.75-4.02c1.85-2.66,4.74-4.21,7.57-3.74C101.01,38.46,103.43,43.01,102.35,47.96z"/>
	<path class="st1" d="M99.13,35.65c0.01,1.28-0.08,2.29-0.15,2.87c-0.04,0.34-0.07,0.53-0.07,0.53l-4.6,0.02
		c0.01-0.41,0-0.8-0.01-1.19c-0.02-0.86-0.07-1.68-0.16-2.46C91.7,13.66,64.25,22.79,64.25,22.79c0.51-4.07,12.01-7.68,24.18-3.74
		C97.7,22.05,99.1,30.77,99.13,35.65z"/>
	
		<ellipse transform="matrix(0.2703 -0.9628 0.9628 0.2703 25.2876 126.0094)" class="st2" cx="95.77" cy="46.32" rx="5.43" ry="3.94"/>
	<path class="st2" d="M99.87,52.93c-1.83,2.07-4.35,3.21-6.83,2.8c-4.07-0.66-6.49-5.22-5.41-10.17c0.33-1.5,0.94-2.87,1.75-4.02
		c-0.6,3.31-1.02,8.67,1.83,11.23C94.22,55.48,97.64,54.53,99.87,52.93z"/>
	<path class="st2" d="M99.13,35.65c0.01,1.28-0.08,2.29-0.15,2.87l-0.02,0.05c-1.52-0.95-4.61-0.68-4.61-0.68s-0.02,0-0.05-0.01
		c-0.02-0.86-0.07-1.68-0.16-2.46C95.98,35.13,97.93,35.4,99.13,35.65z"/>
	<path class="st12" d="M92.95,45.75c-0.64,2.93,0.59,5.58,2.75,5.94c2.16,0.35,4.42-1.74,5.06-4.66c0.64-2.93-0.59-5.58-2.75-5.94
		C95.85,40.73,93.58,42.82,92.95,45.75z"/>
</g>
<g>
	<g>
		<g>
			<path class="st3" d="M95.63,30.57c-0.07,0.01-0.17-0.48-0.38-1.32c-0.22-0.84-0.64-2.04-1.48-3.34
				c-0.83-1.29-2.16-2.61-3.89-3.69c-1.73-1.08-3.85-1.93-6.16-2.48c-4.64-1.1-9.05-0.94-12.14-0.5c-3.11,0.44-4.93,1.21-4.99,1.06
				c-0.02-0.05,0.4-0.31,1.23-0.65c0.83-0.34,2.07-0.74,3.64-1.06c3.14-0.61,7.66-0.89,12.47,0.25c2.39,0.57,4.6,1.48,6.41,2.66
				c1.8,1.18,3.17,2.64,3.98,4.06c0.82,1.42,1.16,2.72,1.27,3.61C95.71,30.07,95.68,30.57,95.63,30.57z"/>
		</g>
	</g>
</g>
<g>
	<g>
		<g>
			<path class="st3" d="M64.24,23.04c-0.11,0-0.17-0.61,0.31-1.38c0.46-0.76,1.34-1.59,2.44-2.26c2.19-1.38,4.32-1.7,4.36-1.45
				c0.06,0.25-1.81,0.94-3.87,2.24c-1.03,0.64-1.89,1.31-2.4,1.87C64.55,22.6,64.38,23.06,64.24,23.04z"/>
		</g>
	</g>
</g>
<g>
	<g>
		<g>
			<path class="st3" d="M99.08,34.81c-0.11-0.01-0.22-0.77-0.56-1.98c-0.09-0.3-0.18-0.63-0.32-0.94c-0.03-0.07-0.07-0.15-0.11-0.21
				c-0.04-0.06-0.04-0.06-0.13-0.14c-0.13-0.11-0.26-0.24-0.42-0.32c-0.59-0.41-1.38-0.36-1.94,0.21c-0.56,0.58-0.82,1.45-0.98,2.22
				c-0.13,0.79-0.19,1.53-0.19,2.15c-0.03,1.25,0.02,2.05-0.13,2.07c-0.1,0.02-0.39-0.74-0.53-2.04c-0.08-0.65-0.09-1.43,0.01-2.32
				c0.14-0.86,0.37-1.89,1.17-2.74c0.4-0.42,0.98-0.69,1.55-0.72c0.58-0.04,1.11,0.17,1.51,0.45c0.21,0.13,0.37,0.3,0.53,0.46
				c0.07,0.06,0.19,0.21,0.24,0.32c0.06,0.11,0.1,0.22,0.13,0.32c0.13,0.4,0.19,0.75,0.24,1.07C99.35,33.99,99.23,34.83,99.08,34.81
				z"/>
		</g>
	</g>
</g>
<g>
	<g>
		<g>
			<path class="st3" d="M89.49,46.88c-0.12,0.01-0.28-0.6-0.07-1.56c0.1-0.47,0.3-1.01,0.54-1.58c0.26-0.55,0.49-1.16,0.9-1.81
				c0.4-0.65,0.91-1.15,1.35-1.56c0.45-0.43,0.91-0.79,1.33-1.03c0.85-0.5,1.5-0.49,1.52-0.38c0.03,0.13-0.48,0.34-1.14,0.91
				c-0.33,0.28-0.7,0.65-1.09,1.09c-0.41,0.45-0.84,0.91-1.17,1.46c-0.34,0.54-0.62,1.17-0.91,1.69c-0.28,0.53-0.52,0.99-0.69,1.4
				C89.71,46.32,89.63,46.88,89.49,46.88z"/>
		</g>
	</g>
</g>
<path class="st2" d="M74.69,80.45c0,0.51-0.39,0.93-0.88,0.93c-0.48,0-0.88-0.41-0.88-0.93c0-0.51,0.39-0.93,0.88-0.93
	C74.3,79.52,74.69,79.93,74.69,80.45z"/>
<ellipse class="st2" cx="83.41" cy="80.7" rx="0.88" ry="0.93"/>
<g>
	<g>
		<g>
			<path class="st3" d="M68.19,97.71c0.02-0.07,0.3,0,0.57-0.32c0.28-0.32,0.54-0.95,0.75-1.76c0.46-1.61,0.45-3.98,0.66-6.63
				c0.18-2.64,0.72-5.1,1.66-6.66c0.94-1.58,2.07-2.04,2.09-1.95c0.1,0.13-0.81,0.75-1.51,2.26c-0.71,1.51-1.13,3.82-1.31,6.43
				c-0.21,2.6-0.3,5.05-0.96,6.75c-0.31,0.83-0.69,1.5-1.14,1.83c-0.22,0.17-0.48,0.2-0.62,0.18
				C68.24,97.78,68.18,97.74,68.19,97.71z"/>
		</g>
	</g>
</g>
<g>
	<g>
		<g>
			<path class="st3" d="M92.7,97.06c0.03,0.04-0.15,0.31-0.7,0.58c-0.51,0.27-1.57,0.36-2.47-0.34c-0.44-0.34-0.84-0.83-1.06-1.45
				c-0.21-0.61-0.32-1.26-0.35-1.95c-0.07-1.37,0.19-2.82,0.15-4.26c-0.01-1.43-0.58-2.7-1.16-3.85c-0.58-1.14-1.24-2.1-1.83-2.87
				c-1.19-1.55-2.18-2.26-2.1-2.38c0.05-0.1,1.23,0.45,2.6,1.96c0.68,0.75,1.42,1.71,2.08,2.89c0.33,0.59,0.64,1.23,0.9,1.92
				c0.27,0.7,0.42,1.51,0.44,2.3c0.04,1.59-0.25,3.01-0.22,4.26c0,0.62,0.08,1.22,0.22,1.72c0.14,0.49,0.43,0.89,0.75,1.19
				c0.66,0.6,1.45,0.64,1.93,0.51C92.39,97.17,92.65,97,92.7,97.06z"/>
		</g>
	</g>
</g>
<g>
	<g>
		<g>
			<path class="st3" d="M124.09,129.78c-0.06,0.01-0.21-0.82-0.37-2.31c-0.17-1.5-0.37-3.66-0.62-6.34
				c-0.49-5.35-1.06-12.76-1.89-20.91c-0.22-2.03-0.42-4.03-0.76-5.9c-0.35-1.88-0.84-3.66-1.41-5.32c-1.16-3.32-2.74-6.09-4.36-8.2
				c-1.61-2.11-3.2-3.6-4.33-4.57c-1.13-0.98-1.81-1.47-1.76-1.53c0.02-0.03,0.2,0.07,0.54,0.28c0.34,0.21,0.84,0.51,1.44,0.98
				c1.22,0.9,2.9,2.33,4.62,4.44c1.72,2.1,3.41,4.93,4.64,8.31c0.62,1.69,1.13,3.51,1.5,5.44c0.36,1.94,0.57,3.93,0.79,5.97
				c0.83,8.18,1.3,15.59,1.62,20.96c0.16,2.68,0.26,4.86,0.32,6.36C124.13,128.94,124.15,129.77,124.09,129.78z"/>
		</g>
	</g>
</g>
<g>
	<g>
		<g>
			<path class="st3" d="M61.51,71.78c0.01,0.14-1.12,0.3-2.79,0.97c-1.67,0.68-3.91,1.85-6.19,3.42c-2.32,1.55-4.16,3.22-5.52,4.48
				c-1.39,1.2-1.95,2.14-2.04,2.11c-0.05-0.02-0.02-0.33,0.23-0.8c0.25-0.48,0.72-1.09,1.35-1.77c1.22-1.37,3.09-3.21,5.46-4.79
				c2.35-1.62,4.7-2.72,6.5-3.27C60.32,71.59,61.51,71.67,61.51,71.78z"/>
		</g>
	</g>
</g>
<g>
	<g>
		<g>
			<path class="st3" d="M40.55,129.59c0,0.05-0.84-0.04-2-0.88c-0.58-0.41-1.23-0.98-1.95-1.67c-0.71-0.71-1.49-1.47-2.45-2.28
				c-0.94-0.83-1.94-1.79-2.93-2.89c-0.97-1.12-1.94-2.39-2.8-3.83c-1.74-2.86-2.99-6.41-3.49-10.23c-0.53-3.83-0.17-7.54,0.3-10.79
				c0.44-3.24,0.56-6.2,0.68-8.68c0.12-2.49,0.22-4.51,0.46-5.9c0.12-0.69,0.28-1.24,0.48-1.57c0.2-0.35,0.46-0.38,0.46-0.36
				c0.02,0.04-0.17,0.11-0.29,0.44c-0.13,0.32-0.23,0.85-0.29,1.53c-0.13,1.37-0.13,3.38-0.16,5.87c-0.04,2.49-0.09,5.47-0.49,8.77
				c-0.42,3.26-0.74,6.83-0.23,10.55c0.49,3.71,1.66,7.13,3.31,9.92c0.81,1.4,1.72,2.65,2.64,3.76c0.94,1.1,1.88,2.06,2.79,2.91
				c0.92,0.83,1.72,1.68,2.38,2.4c0.67,0.72,1.27,1.31,1.8,1.75C39.82,129.32,40.58,129.52,40.55,129.59z"/>
		</g>
	</g>
</g>
<g>
	<g>
		<g>
			<path class="st5" d="M72.08,58.52c-0.04,0.12-0.31,0.16-0.69,0.05c-0.38-0.1-0.82-0.34-1.25-0.46c-0.42-0.12-0.92-0.14-1.28-0.22
				c-0.37-0.07-0.6-0.19-0.6-0.31c0-0.13,0.22-0.24,0.58-0.34c0.36-0.09,0.89-0.19,1.55-0.02c0.64,0.19,1.04,0.54,1.31,0.77
				C71.96,58.22,72.12,58.39,72.08,58.52z"/>
		</g>
	</g>
</g>
<g>
	<g>
		<g>
			<path class="st6" d="M78.1,80.87c-0.04-0.05,0.34-0.39,1.12-0.85c0.78-0.46,1.93-1.04,3.39-1.71c1.45-0.67,3.2-1.42,5.15-2.24
				c1.94-0.85,4.12-1.63,6.2-2.8c0.53-0.28,1.06-0.56,1.57-0.83c0.5-0.31,0.99-0.62,1.47-0.92c0.95-0.61,1.85-1.24,2.63-1.9
				c1.6-1.31,2.68-2.81,3.05-4.31c0.43-1.48,0.23-2.76-0.23-3.45c-0.48-0.69-0.97-0.9-0.92-0.97c0-0.03,0.56,0.04,1.21,0.76
				c0.63,0.73,0.96,2.21,0.57,3.83c-0.18,0.81-0.51,1.69-1.06,2.51c-0.54,0.82-1.26,1.59-2.07,2.3c-0.81,0.71-1.73,1.38-2.69,2.01
				c-0.48,0.32-0.98,0.63-1.49,0.94c-0.53,0.28-1.07,0.57-1.61,0.86c-2.17,1.22-4.38,1.99-6.32,2.78c-1.96,0.77-3.73,1.47-5.21,2.05
				c-1.48,0.59-2.67,1.08-3.48,1.43C78.57,80.7,78.14,80.93,78.1,80.87z"/>
		</g>
	</g>
</g>
<g>
	<g>
		<g>
			<path class="st6" d="M76.46,81.02c-0.07,0.03-0.2-0.24-0.58-0.6c-0.37-0.36-0.98-0.82-1.8-1.31c-0.42-0.24-0.87-0.51-1.36-0.79
				c-0.52-0.3-1.02-0.66-1.54-1.03c-0.52-0.38-1.06-0.79-1.61-1.24c-0.28-0.24-0.54-0.45-0.84-0.78c-0.23-0.28-0.46-0.57-0.7-0.87
				c-1.85-2.35-3.1-4.98-3.05-7.07c0.01-1.03,0.3-1.83,0.58-2.32c0.28-0.49,0.52-0.7,0.56-0.67c0.16,0.07-0.62,1.12-0.49,2.97
				c0.11,1.84,1.33,4.24,3.13,6.52c0.23,0.29,0.45,0.57,0.67,0.84c0.18,0.21,0.46,0.45,0.72,0.67c0.52,0.44,1.04,0.86,1.54,1.25
				c0.5,0.39,0.98,0.77,1.43,1.06c0.47,0.31,0.92,0.61,1.32,0.9c0.8,0.58,1.39,1.15,1.71,1.63C76.49,80.67,76.52,81.01,76.46,81.02z
				"/>
		</g>
	</g>
</g>
<ellipse class="st13" cx="65.09" cy="46.8" rx="3.23" ry="1.62"/>
<path class="st13" d="M83.99,49.38c-0.25,0.87-1.86,1.27-3.59,0.9c-1.73-0.37-2.93-1.38-2.69-2.25s1.86-1.27,3.59-0.9
	C83.04,47.5,84.24,48.51,83.99,49.38z"/>
<g>
	<g>
		<g>
			<path class="st5" d="M66.48,44.71c-0.05,0.24-0.56,0.4-1.23,0.14c-0.33-0.13-0.62-0.41-0.7-0.68c-0.09-0.28,0.01-0.45,0.13-0.48
				c0.13-0.03,0.26,0.05,0.4,0.1c0.14,0.05,0.32,0.13,0.53,0.21C66.07,44.18,66.54,44.45,66.48,44.71z"/>
		</g>
	</g>
</g>
<g>
	<g>
		<g>
			<path class="st5" d="M81.13,45.75c0.12,0.26-0.56,0.6-1.21,0.3c-0.67-0.26-0.91-0.98-0.63-1.07c0.24-0.09,0.55,0.04,1,0.22
				C80.72,45.39,81.03,45.52,81.13,45.75z"/>
		</g>
	</g>
</g>
<g>
	<g>
		<g>
			<path class="st5" d="M65.85,41.56c0.06,0.12-0.03,0.29-0.19,0.5c-0.16,0.2-0.44,0.52-0.94,0.72c-0.86,0.29-1.63,0.16-1.64-0.11
				c-0.01-0.24,0.58-0.52,1.32-0.76c0.29-0.1,0.6-0.29,0.89-0.39C65.57,41.42,65.79,41.44,65.85,41.56z"/>
		</g>
	</g>
</g>
<g>
	<g>
		<g>
			<path class="st5" d="M84.95,45.5c0.05,0.11-0.11,0.33-0.5,0.34c-0.38,0.02-0.82-0.21-1.14-0.53c-0.29-0.33-0.53-0.75-0.59-0.96
				c-0.04-0.12-0.1-0.27-0.09-0.4c0.01-0.12,0.09-0.17,0.15-0.18c0.06-0.01,0.11,0.03,0.18,0.05c0.06,0.01,0.15,0.04,0.27,0.13
				c0.27,0.21,0.46,0.4,0.71,0.69c0.27,0.26,0.47,0.44,0.63,0.56C84.73,45.32,84.9,45.38,84.95,45.5z"/>
		</g>
	</g>
</g>
<path class="st8" d="M68.41,44.11c-0.12,0.55-0.91,0.19-1.98,0.02s-2.01-0.1-1.89-0.65c0.12-0.55,1.26-1.52,2.33-1.35
	C67.93,42.31,68.53,43.56,68.41,44.11z"/>
<path class="st8" d="M83.11,45.45c-0.12,0.55-0.91,0.19-1.98,0.02s-2.01-0.1-1.89-0.65c0.12-0.55,1.26-1.52,2.33-1.35
	C82.63,43.64,83.23,44.9,83.11,45.45z"/>
<path class="st12" d="M67.22,43.18c0,0.22,0.25,0.4,0.57,0.4s0.57-0.18,0.57-0.4c0-0.22-0.25-0.4-0.57-0.4S67.22,42.97,67.22,43.18z
	"/>
<path class="st12" d="M81.74,44.41c0,0.22,0.25,0.4,0.57,0.4s0.57-0.18,0.57-0.4s-0.25-0.4-0.57-0.4S81.74,44.19,81.74,44.41z"/>
<rect x="-0.56" y="-5.2" class="st14" width="150" height="129.74"/>
<g>
	<path class="st3" d="M33.62,45.36c0,0-1.26-3.62-3.49-2.6c-3.13,1.44,3.3,9.97,3.3,9.97s5.96-7.34,4.01-9.26
		C35.32,41.38,33.62,45.36,33.62,45.36z"/>
	<g>
		<g>
			<g>
				<path class="st3" d="M26.25,40.6c-0.17,0.2-0.99-0.29-1.64-1.16c-0.64-0.86-1-1.63-0.81-1.8c0.19-0.18,0.92,0.39,1.55,1.24
					C25.97,39.71,26.41,40.41,26.25,40.6z"/>
			</g>
		</g>
	</g>
	<g>
		<g>
			<g>
				<path class="st3" d="M34.23,39.11c-0.26,0.05-0.58-0.81-0.51-1.84c0.07-1.02,0.29-1.79,0.53-1.8c0.26-0.01,0.46,0.85,0.39,1.84
					C34.58,38.29,34.48,39.06,34.23,39.11z"/>
			</g>
		</g>
	</g>
	<g>
		<g>
			<g>
				<path class="st3" d="M39.88,48.98c0.04-0.26,1.05-0.27,2.15,0.13c1.09,0.39,1.88,0.86,1.82,1.1c-0.07,0.25-1.05,0.16-2.12-0.23
					C40.66,49.6,39.84,49.23,39.88,48.98z"/>
			</g>
		</g>
	</g>
	<g>
		<g>
			<g>
				<path class="st3" d="M25.9,46.55c-0.02,0.26-1.04,0.33-2.16-0.01c-1.11-0.33-1.93-0.76-1.88-1c0.05-0.26,1.04-0.22,2.14,0.11
					C25.08,45.97,25.93,46.29,25.9,46.55z"/>
			</g>
		</g>
	</g>
	<g>
		<g>
			<g>
				<path class="st3" d="M27.64,40.11c-0.19,0.17-0.64-0.08-1.01-0.55c-0.37-0.47-0.5-0.98-0.3-1.14c0.2-0.16,0.65,0.09,1.01,0.55
					C27.7,39.43,27.83,39.94,27.64,40.11z"/>
			</g>
		</g>
	</g>
	<g>
		<g>
			<g>
				<path class="st3" d="M42.73,40.11c0.18,0.2-0.23,0.72-0.76,1.04c-0.52,0.31-0.87,0.53-1.12,0.44c-0.11-0.06-0.15-0.25-0.04-0.5
					c0.1-0.25,0.35-0.52,0.65-0.71C42.07,40.01,42.57,39.92,42.73,40.11z"/>
			</g>
		</g>
	</g>
	<g>
		<g>
			<g>
				<path class="st3" d="M44.12,41.52c0.16,0.21-0.29,0.73-0.95,1.05c-0.64,0.31-1.17,0.47-1.34,0.29
					c-0.18-0.19,0.23-0.77,0.91-1.11C43.41,41.43,43.97,41.32,44.12,41.52z"/>
			</g>
		</g>
	</g>
</g>
</svg>
