<?xml version="1.0" encoding="utf-8"?>
<!-- Generator: Adobe Illustrator 23.0.3, SVG Export Plug-In . SVG Version: 6.00 Build 0)  -->
<svg version="1.1" id="OBJECTS" xmlns="http://www.w3.org/2000/svg" xmlns:xlink="http://www.w3.org/1999/xlink" x="0px" y="0px"
	 viewBox="0 0 150 150" style="enable-background:new 0 0 150 150;" xml:space="preserve">
<style type="text/css">
	.st0{fill:#6559F3;}
	.st1{fill:#7C70FF;}
	.st2{fill:#584ED4;}
	.st3{fill:#FFFFFF;}
	.st4{fill:#171D5A;}
	.st5{fill:#090B24;}
	.st6{fill:#C75482;}
	.st7{fill:#EAADA9;}
	.st8{fill:#E1787F;}
	.st9{fill:#DC427F;}
	.st10{fill:#ED80AC;}
	.st11{fill:#FFBFD9;}
	.st12{fill:#A1234E;}
	.st13{fill:#7A88B0;}
	.st14{fill:#485470;}
	.st15{fill:#F8D0F8;}
	.st16{fill:none;}
</style>
<g>
	<g>
		<path class="st0" d="M127.62,76.99c0,36.26-27.99,65.65-62.51,65.65c-27.58,0-50.99-18.76-59.29-44.8
			C3.73,91.29,2.6,84.28,2.6,76.99c0-36.26,27.99-65.65,62.51-65.65c24.23,0,45.24,14.48,55.61,35.64
			C125.13,55.97,127.62,66.18,127.62,76.99z"/>
		<path class="st1" d="M29.58,95.28c0.02-0.85,1.53-18.44,20.36-19.51c18.83-1.07,37.92-3.47,45.56-8.55
			c7.64-5.08,15.02-6.42,16.54,4.54c1.53,10.96-18.69,16.88-33.85,17.11c-15.16,0.23-29.02,2.94-34.87,8.55
			C37.47,103.04,29.32,107.31,29.58,95.28z"/>
		<path class="st1" d="M116.12,39.03c-11.33-16.76-29.95-27.7-51.01-27.7C30.59,11.34,2.6,40.73,2.6,76.99
			c0,7.29,1.13,14.3,3.22,20.85c0.15,0.46,0.3,0.93,0.46,1.39c3.8-13,13.31-32.51,36.53-36.02
			C73.02,58.64,106.38,54.85,116.12,39.03z"/>
		<ellipse class="st1" cx="18.34" cy="27.22" rx="9.76" ry="10.24"/>
		<ellipse class="st0" cx="126.46" cy="75.13" rx="13.64" ry="14.32"/>
		<ellipse class="st0" cx="126.55" cy="46" rx="3.07" ry="3.23"/>
		<ellipse class="st0" cx="22.77" cy="140.58" rx="8.04" ry="8.44"/>
		<ellipse class="st0" cx="19.34" cy="121.8" rx="2.62" ry="2.75"/>
		<path class="st2" d="M57.24,114.58c-11.65,5.33-17.85,13.56-21.14,20.58c8.67,4.78,18.54,7.49,29.01,7.49
			c24.22,0,45.21-14.46,55.6-35.61C102.22,103.21,74.54,106.66,57.24,114.58z"/>
	</g>
	<g>
		<g>
			<path class="st3" d="M144.83,102.38c-1.81-1.06-5.52-2.92-6.24-2.61c-0.54,0.24-2.86,2.12-4.71,3.66
				c-0.12,0.1-0.23,0.19-0.35,0.29c1.46-1.78,2.57-3.29,2.46-3.61c-0.28-0.88-9.47-3.98-9.47-3.98c-0.9,0.54-2.05,1.6-3.2,2.81
				c-2.2-2.07-6.49-6.05-7.63-6.61c-1.55-0.77-7.22-3.15-7.22-3.15s0.07-0.68-0.28-1.17h0c-0.2-0.28-0.54-0.5-1.12-0.5
				c-0.35,0-5.4-7.51-10.09-14.32c-1.03-3.86-2.18-7.67-3.21-9.93c-2.22-4.88-7.3-9.75-8.97-15.88c-0.35-1.3-0.55-2.65-0.54-4.07
				c0.07-8.12,0.52-16.22-0.54-21.8c-0.25-1.33-0.6-2.72-1.1-4.15c-0.27-5.59-1.77-8.72-3.81-10.01c-0.37-0.24-0.77-0.43-1.15-0.59
				c-0.03-0.03-0.07-0.06-0.11-0.09c-0.22-0.16-0.45-0.31-0.69-0.44c0.01,0,0.02,0.01,0.02,0.01c-1.63-1.02-3.34-1.65-4.57-2.02
				c-1.07-0.32-1.79-0.44-1.79-0.44s-2.52-1.51-6.2-2.22c-2.73-0.53-6.1-0.62-9.55,0.67c-6.43,2.4-8.36,8.63-8.75,14.72
				c-0.01,0.05-0.01,0.07-0.01,0.07c-0.1,1.55-0.1,3.1-0.05,4.57c0.24,7.24-2,11.63-3.02,16.82c-0.78,3.99,0.35,11.51,2.72,18.28
				l-2.4,0.83c0,0,0.07,1.16,0.17,2.9c-0.01,0.01-0.02,0.02-0.03,0.02c-1.14,0.9-2.06,1.71-2.6,2.33c0,0,0,0,0,0
				c-0.09,0.1-0.16,0.19-0.23,0.28c-0.01,0.01-0.02,0.02-0.02,0.03c-0.06,0.09-0.12,0.17-0.16,0.25c0,0,0,0,0,0l0,0c0,0,0,0,0,0
				c0,0-0.52,0.59-1.11,1.57c0,0-0.01,0.01-0.01,0.01c0,0,0,0-0.01,0.01c-0.41,0.61-0.88,1.35-1.31,2.1l0,0
				c-0.31,0.54-0.6,1.09-0.83,1.62c0,0-0.71,6.48-0.68,12.28v0.39c0,5.79-0.54,14.05-0.54,14.05s-0.05,0.38-0.16,0.91
				c-0.19-0.34-0.42-0.72-0.66-1.11c0.86-3.55,0.1-8.19-2.01-10.58c-1.5-1.7-3.29-2.9-4.3-3.5c0.36-2.33-0.09-3.12-0.09-3.12
				s1.1-0.54,1.54-1.53c0.43-1-1.24-1.61-1.24-1.61s0,0,0.01-0.01c0.03-0.08,0.24-0.6,0.43-1.4c0.03-0.11,0.05-0.22,0.08-0.35
				c0.22-1.07-1.53-1.61-1.53-1.61s0.29-0.61-0.37-1.84c-0.66-1.23-2.12-1.08-2.12-1.08l0.01-0.02c0.2-0.27,3.03-4.31,3.57-5.84
				c0.09-0.24,0.11-0.42,0.07-0.51c-0.18-0.35-0.53-0.46-0.81-0.49c-0.27-0.02-0.5,0.03-0.5,0.03c-1.82,1.19-3.7,3.05-5.31,4.94
				c-0.34-0.87-0.94-1.99-1.77-2.17c-1.39-0.31-1.68,0.69-1.24,1.46c0.33,0.57,0.81,2.28,1.04,3.21c-0.15,0.21-0.3,0.41-0.44,0.61
				c0,0-0.01,0.01-0.01,0.01c-1.2,1.72-1.92,3.11-1.84,3.53c0.18,0.88,3.25,7.85,4.37,10.37c-2.74,4.08-3.32,10.48-3.32,10.48
				s0,0.59,0.08,1.5c0.08,0.82,0.23,1.9,0.52,3.06c0,0.01,0,0.01,0,0.01c0.15,0.59,0.34,1.21,0.57,1.82
				c1.14,2.99,2.33,4.15,3.54,4.65c0.05,0.02,0.11,0.05,0.16,0.06c0.49,0.18,2.06-0.66,3.85-1.97c0.01,0.06,0.03,0.11,0.04,0.16
				c0.05,0.19,0.09,0.37,0.13,0.53c0,0,0,0,0,0c0.12,0.47,0.21,0.8,0.26,0.93c0.34,0.85,1.58,2.17,1.86,2.6
				c0.02,0.03,0.03,0.05,0.03,0.05s0,0,0,0v0l0,0c0.06,0.1,0.56,1.07,1.31,2.42c0,0,0,0,0,0c0,0,0,0,0,0
				c1.2,2.17,3.04,5.34,4.69,7.48c0,0,0,0,0,0.01c0.65,0.85,1.28,1.54,1.82,1.93c0,0.01,0.01,0.01,0.01,0.01
				c0.25,0.18,0.48,0.3,0.69,0.35c0,0,0.07,0.03,0.21,0.06c0.49,0.1,1.77,0.22,3.57-0.72c0.33-0.17,0.63-0.38,0.91-0.64
				c0.09-0.08,0.17-0.17,0.26-0.26c0.06-0.06,0.12-0.14,0.18-0.21c0.23-0.28,0.43-0.6,0.62-0.94c0.07-0.13,0.14-0.27,0.21-0.41
				c0.07-0.14,0.13-0.29,0.19-0.43c0.05-0.13,0.11-0.26,0.15-0.39c0.05-0.13,0.1-0.26,0.14-0.4c0.01-0.04,0.03-0.08,0.04-0.12
				c0,0,0,0,0-0.01c0.69-2.12,0.83-4.37,0.83-4.68c0-0.1,0.03-0.25,0.08-0.43c0-0.01,0.01-0.02,0.01-0.03
				c0.01-0.03,0.02-0.07,0.03-0.11c0,0,0,0,0-0.01c0.2-0.72,0.51-1.85,0.07-2.66c-0.21-0.39-0.18-0.49-0.18-0.49l1.13-9.12
				c1.64,6.29,3.18,11.85,4.15,14.98c0,0.01,0.01,0.02,0.01,0.03c0.01,0.02,0.01,0.05,0.02,0.06c0.04,0.11,0.07,0.23,0.11,0.34
				c0.03,0.11,0.07,0.21,0.1,0.32c0.03,0.09,0.05,0.17,0.08,0.24c0.06,0.18,0.09,0.29,0.1,0.32l0,0.01l0,0l-5.99,17.49
				c0.5,0.07,1.01,0.14,1.52,0.2l0,0c-1.28,5.17-2.37,9.79-2.54,11.05h0v0c0,0,0.04,0.01,0.11,0.02c0,0,0.01,0,0.01,0
				c0.07,0.01,0.18,0.03,0.32,0.06c0.01,0,0.03,0.01,0.04,0.01c0.06,0.01,0.12,0.02,0.19,0.03c0.02,0,0.04,0.01,0.06,0.01
				c0.08,0.01,0.17,0.03,0.27,0.05c0.01,0,0.01,0,0.02,0c0.1,0.02,0.21,0.03,0.32,0.05c0.03,0.01,0.06,0.01,0.1,0.02
				c0.08,0.01,0.17,0.03,0.26,0.04c0.04,0.01,0.08,0.01,0.13,0.02c0.1,0.02,0.2,0.03,0.31,0.05c0.03,0.01,0.07,0.01,0.1,0.02
				c0.13,0.02,0.27,0.04,0.41,0.06c0.06,0.01,0.13,0.02,0.19,0.03c0.09,0.01,0.19,0.03,0.29,0.04c0.07,0.01,0.14,0.02,0.21,0.03
				c0.11,0.02,0.23,0.03,0.35,0.05c0.06,0.01,0.11,0.02,0.17,0.03c0.17,0.02,0.34,0.05,0.52,0.07c0.08,0.01,0.16,0.02,0.24,0.03
				c0.11,0.02,0.23,0.03,0.34,0.05c0.09,0.01,0.18,0.03,0.28,0.04c0.12,0.02,0.24,0.03,0.36,0.05c0.11,0.01,0.21,0.03,0.32,0.04
				c0.18,0.02,0.35,0.05,0.54,0.07c0.1,0.01,0.21,0.03,0.32,0.04c0.12,0.01,0.24,0.03,0.36,0.04c0.11,0.01,0.23,0.03,0.34,0.04
				c0.12,0.01,0.25,0.03,0.37,0.04c0.14,0.02,0.27,0.03,0.41,0.05c0.19,0.02,0.39,0.04,0.59,0.07c0.12,0.01,0.25,0.03,0.37,0.04
				c0.13,0.01,0.25,0.03,0.38,0.04c0.13,0.01,0.27,0.03,0.4,0.04c0.13,0.01,0.26,0.03,0.39,0.04c0.19,0.02,0.37,0.04,0.56,0.06
				c0.18,0.02,0.37,0.04,0.56,0.05c0.14,0.01,0.29,0.03,0.44,0.04c0.13,0.01,0.26,0.02,0.39,0.03c0.15,0.01,0.3,0.03,0.45,0.04
				c0.13,0.01,0.27,0.02,0.4,0.03c0.15,0.01,0.3,0.02,0.46,0.04c0.25,0.02,0.5,0.04,0.76,0.06c0.16,0.01,0.32,0.02,0.49,0.03
				c0.13,0.01,0.27,0.02,0.4,0.03c0.17,0.01,0.33,0.02,0.5,0.03c0.13,0.01,0.26,0.02,0.4,0.02c0.17,0.01,0.34,0.02,0.52,0.03
				c0.09,0,0.18,0.01,0.26,0.01c0.35,0.02,0.71,0.04,1.06,0.05c0.13,0.01,0.26,0.01,0.39,0.02c0.18,0.01,0.36,0.01,0.55,0.02
				c0.13,0,0.26,0.01,0.39,0.01c0.19,0.01,0.37,0.01,0.56,0.02c0.1,0,0.19,0,0.29,0.01c0.36,0.01,0.72,0.02,1.09,0.02
				c0.14,0,0.27,0.01,0.41,0.01c0.19,0,0.37,0.01,0.56,0.01c0.14,0,0.27,0,0.41,0c0.19,0,0.38,0,0.57,0c0.1,0,0.19,0,0.29,0
				c0.38,0,0.75,0,1.13-0.01c0.14,0,0.27,0,0.41-0.01c0.19,0,0.39-0.01,0.58-0.01c0.14,0,0.28-0.01,0.42-0.01
				c0.19,0,0.39-0.01,0.58-0.02c0.12,0,0.24-0.01,0.36-0.01c0.36-0.01,0.72-0.03,1.08-0.04c0.14-0.01,0.28-0.01,0.42-0.02
				c0.19-0.01,0.38-0.02,0.58-0.03c0.14-0.01,0.28-0.02,0.43-0.03c0.19-0.01,0.38-0.02,0.58-0.04c0.14-0.01,0.28-0.02,0.43-0.03
				c0.34-0.02,0.67-0.05,1.01-0.08c0.15-0.01,0.29-0.03,0.44-0.04c0.19-0.02,0.38-0.04,0.56-0.05c0.15-0.01,0.29-0.03,0.44-0.05
				c0.19-0.02,0.38-0.04,0.56-0.06c0.16-0.02,0.31-0.04,0.47-0.06c0.31-0.04,0.62-0.08,0.93-0.12c0.15-0.02,0.31-0.04,0.46-0.06
				c0.18-0.03,0.36-0.05,0.54-0.08c0.15-0.02,0.31-0.05,0.46-0.07c0.18-0.03,0.35-0.05,0.52-0.08c0.18-0.03,0.36-0.06,0.54-0.09
				c0.27-0.05,0.53-0.09,0.79-0.15c0.17-0.03,0.33-0.06,0.5-0.1c0.17-0.03,0.33-0.07,0.5-0.1c0.16-0.03,0.32-0.07,0.48-0.1
				c0.16-0.04,0.32-0.07,0.48-0.11c0.03-0.01,0.05-0.01,0.08-0.02c0.09-0.02,0.17-0.04,0.26-0.06c0.24-0.06,0.48-0.11,0.71-0.17
				c0.15-0.04,0.29-0.08,0.43-0.11c0.21-0.05,0.42-0.11,0.62-0.17c0.13-0.04,0.25-0.07,0.38-0.11c0.22-0.06,0.45-0.13,0.67-0.2
				c0.11-0.03,0.22-0.07,0.33-0.1c0.23-0.07,0.45-0.14,0.67-0.22c0.02-0.01,0.05-0.02,0.07-0.02c0.06-0.02,0.11-0.04,0.17-0.06
				c0.31-0.11,0.62-0.22,0.92-0.33c0.1-0.04,0.2-0.07,0.3-0.11c0.29-0.11,0.58-0.23,0.87-0.35c0.09-0.04,0.18-0.07,0.27-0.11
				c0.34-0.15,0.68-0.3,1.01-0.45c0.02-0.01,0.04-0.02,0.07-0.03c0.36-0.17,0.72-0.35,1.07-0.53c0.06-0.03,0.12-0.07,0.19-0.1
				c0.28-0.15,0.55-0.3,0.81-0.46c0.09-0.05,0.18-0.11,0.28-0.17c0.24-0.15,0.48-0.3,0.72-0.45c0.08-0.05,0.16-0.11,0.24-0.16
				c0.3-0.2,0.59-0.4,0.87-0.62c0.01-0.01,0.02-0.02,0.03-0.02c0.55-0.41,1.08-0.85,1.57-1.31c0.22-0.21,0.44-0.42,0.65-0.63
				c0,0-0.06-0.09-0.17-0.25c-0.05-0.07-0.1-0.15-0.17-0.25c-0.07-0.11-0.16-0.23-0.25-0.38c-0.1-0.15-0.21-0.32-0.33-0.5
				c-0.07-0.11-0.15-0.22-0.23-0.34c-0.16-0.24-0.33-0.5-0.52-0.78c-0.46-0.7-1-1.51-1.59-2.4c1.83-0.71,5.09-2.17,8.93-4.83
				c5.96-4.13,4.72-8.59,4.72-8.59c0,0-0.01-0.01-0.01-0.02c0,0,0,0,0.01,0.01c-0.9-1.27-5.19-7.16-9.93-10.56
				c-0.32-0.22-0.63-0.48-0.94-0.77c-0.75-0.68-1.48-1.53-2.2-2.5c-2.02-2.72-3.87-6.39-5.28-10.06c1.71-0.8,3.39-1.89,4.89-3.27
				c4,3.16,7.76,6.12,8.21,6.47c0.56,0.43,5.75,3.14,10.25,5.46c0,0,0.01,0,0.01,0c0.68,0.74,1.6,1.69,2.06,1.87
				c0,0,0.03,0.01,0.08,0.03c0.03,0.01,0.06,0.02,0.09,0.03c0.04,0.01,0.07,0.02,0.12,0.04c0.29,0.1,0.7,0.24,1.15,0.4
				c-0.11,0.15-0.18,0.23-0.18,0.23c0.91,0.74,8.7,5.89,9.12,5.67c0.09-0.05,0.57-0.54,1.26-1.28c0.23,0.12,0.35,0.18,0.35,0.18
				s0.74,0.59,1.69,1.33c0.16,0.12,0.32,0.25,0.49,0.38c1.28,0.97,2.75,2.05,3.28,2.26c0.47,0.19,1.85,0.15,3.33,0.07
				c1.24-0.07,2.54-0.16,3.43-0.18c0.28,0,0.4-0.36,0.19-0.54c-0.59-0.53-1.56-1.24-2.52-1.39c-1.55-0.24-2.8-0.16-2.8-0.16
				l-1.24-1.25c1.53-0.97,4.66-2.5,4.97-2.5c0.02,0,0.05,0,0.09,0.01c0.01,0,0.01,0,0.01,0c0.04,0,0.09,0.01,0.14,0.02
				c0.01,0,0.03,0,0.04,0.01c0.05,0.01,0.11,0.02,0.17,0.03c0.04,0.01,0.08,0.01,0.12,0.02c0.01,0,0.03,0,0.04,0.01
				c1.36,0.22,4.54,0.8,5.98,0.89c0.19,0.01,0.35,0.02,0.48,0.01c0.28-0.02,0.54-0.11,0.78-0.24c0.28-0.16,0.52-0.37,0.71-0.58
				c0.34-0.37,0.54-0.73,0.54-0.73c0.36-0.03,0.71-0.34,1.01-0.68c0.41-0.48,0.7-1.03,0.7-1.03c0.24-0.11,0.44-0.33,0.61-0.56
				c0.32-0.45,0.49-0.99,0.49-0.99C150.23,103.85,147.33,103.04,144.83,102.38z M139.45,101.92c0.04,0.02,0.08,0.03,0.13,0.05
				c-0.42,0.17-0.92,0.38-1.47,0.6l0.64-0.92c0,0,0.14,0.05,0.37,0.14C139.21,101.83,139.32,101.87,139.45,101.92z"/>
			<path class="st3" d="M109.17,117c0.06,0.07,0.12,0.15,0.16,0.23C109.32,117.21,109.26,117.13,109.17,117z"/>
		</g>
		<g>
			<g>
				<path class="st4" d="M98.63,85.59c-0.23,0.42-0.46,0.83-0.72,1.22c-4.69,7.32-13.66,9.8-18.51,8.06
					c-5.11-1.84-15.21-0.23-15.21-0.23s-5.84-10.68-10.96-20.18c-2.66-4.93-5.13-9.55-6.49-12.19c-3.98-7.72-6.19-18.89-5.18-24.07
					c1.01-5.19,3.26-9.58,3.02-16.82c-0.05-1.47-0.05-3.02,0.05-4.57c0,0,0-0.02,0.01-0.07c0.4-6.09,2.33-12.32,8.75-14.72
					c3.45-1.29,6.82-1.2,9.55-0.67c3.68,0.71,6.2,2.22,6.2,2.22c5.65,3.19,8.87,6.88,10.78,10.53c1.29,2.48,1.98,4.94,2.41,7.2
					c1.06,5.58,0.61,13.68,0.54,21.8c-0.01,1.42,0.19,2.77,0.54,4.07c1.66,6.12,6.75,11,8.97,15.88
					C95.08,68.96,98.63,85.59,98.63,85.59z"/>
				<path class="st3" d="M56.81,3.54c0,0-7.28,1.12-8.71,7.98C48.1,11.52,49.97,5.86,56.81,3.54z"/>
				<path class="st5" d="M97.92,86.81c-4.69,7.32-13.66,9.8-18.51,8.06c-5.11-1.84-15.21-0.23-15.21-0.23s-5.84-10.68-10.96-20.18
					c-0.29-1.7-0.45-2.97-0.48-3.63c-0.24-4.24-3.66-11.78-3.66-11.78s-3.98-7.19-3.88-18c0,0,1.06,6.58,2.95,9.02
					c0,0-0.77-15.49,1.61-23.93c2.11-7.5,24.29-11.78,30.17-12.03c1.29,2.48,1.98,4.94,2.41,7.2c1.06,5.58,0.61,13.68,0.54,21.8
					c-0.01,1.42,0.19,2.77,0.54,4.07c0.27,2.51,1.05,5.11,2.83,8.01C90.36,61.88,96.09,76.72,97.92,86.81z"/>
				<g>
					<path class="st6" d="M81.34,35.98c-1.08,4.22-3.67,7.13-6.21,6.72l-0.1-0.02c-0.36-0.07-0.69-0.2-1.01-0.39
						c-0.8-0.47-1.46-1.31-1.96-2.39c-0.13-0.28-0.25-0.59-0.35-0.9c-0.59-1.77-0.77-4.02-0.42-6.39c0.32-2.17,1.03-4.1,1.96-5.56
						c0,0,0-0.01,0.01-0.01c0.71-1.12,1.55-1.97,2.44-2.45l0,0c0.35-0.18,0.7-0.31,1.06-0.38c0.36-0.07,0.72-0.08,1.08-0.02
						c2.87,0.47,4.58,4.99,3.83,10.11C81.6,34.87,81.48,35.44,81.34,35.98z"/>
					<g>
						<path class="st3" d="M79.72,37.46c-1.09,3.26-2.66,5.01-4.69,5.23l0,0c-0.36-0.07-0.69-0.2-1.01-0.39
							c2.38,0.32,4.13-1.31,5.35-4.96c1.38-4.13,1.32-8.38-0.16-11.11c-0.92-1.69-2.53-1.77-3.5-1.64c0.35-0.18,0.7-0.31,1.06-0.38
							c0.96,0.1,2.05,0.53,2.76,1.84C81.06,28.85,81.14,33.23,79.72,37.46z"/>
					</g>
				</g>
				<path class="st7" d="M69.26,46.67c-0.3,0.94-0.48,2.52-0.58,3.93c-0.04,0.58-0.07,1.13-0.09,1.6c-0.04,0.83-0.04,1.4-0.04,1.4
					s-1.53,0.33-3.4,0.58c-1.22,0.16-2.57,0.28-3.74,0.26c-2.96-0.07-7.36-2.41-6.85-2.94c0.07-0.07,0.16-0.28,0.25-0.59h0
					c0.37-1.17,0.91-3.78,1.3-5.71c0-0.01,0-0.02,0.01-0.03c0.17-0.85,0.31-1.56,0.38-1.97c0.04-0.23,0.07-0.37,0.07-0.37
					s0.09,0.01,0.25,0.03C58.66,43.12,69.86,44.83,69.26,46.67z"/>
				<path class="st8" d="M68.59,52.2c0.02-0.47,0.05-1.02,0.09-1.6c0.1-1.41,0.28-2.99,0.58-3.93c0.59-1.84-10.6-3.55-12.44-3.82
					l-0.32,0.33c-0.07,0.41-0.21,1.12-0.38,1.97c0,0.01-0.01,0.02-0.01,0.03c0.78,1.35,2.35,3.81,4.58,5.94
					c1.28,1.22,2.77,2.33,4.46,3.06c1.87-0.25,3.4-0.58,3.4-0.58S68.56,53.03,68.59,52.2z"/>
				<path class="st7" d="M79.02,25.79c0,0.05-0.01,0.1-0.01,0.15c-0.12,1.34-0.32,2.55-0.5,3.64c-0.34,2.12-0.38,5.29-0.71,7.99
					c-0.1,0.84-0.22,1.64-0.4,2.35c-0.14,0.55-0.3,1.05-0.5,1.47c-1.3,2.73-10.05,9.32-11.78,8.76c-1.73-0.56-9.45-6.32-10.9-8.55
					c-0.04-0.06-0.08-0.12-0.11-0.18c-1.78-2.93-2.91-9.41-2.91-9.41c-0.26-3.27-0.08-6.1,0.43-8.53c0.94-4.53,3.03-7.68,5.6-9.65
					c0.34-0.26,0.68-0.5,1.04-0.72c1.08-0.67,2.23-1.16,3.4-1.47c5.99-1.6,14.22-0.47,16.18,4.86
					C79.13,20.03,79.24,23.14,79.02,25.79z"/>
				<polygon class="st8" points="68.93,35.96 68.82,37.51 69.35,37.48 				"/>
				<path class="st4" d="M75.21,32.29c-0.02-0.04-0.06-0.06-0.1-0.05c-0.02,0-0.03,0.01-0.05,0.01c-0.02,0.01-0.04,0.02-0.07,0.03
					c-0.03,0.02-0.06,0.03-0.09,0.05c-0.03,0.01-0.06,0.03-0.09,0.05c-0.13-0.3-0.44-0.56-0.69-0.73c-0.31-0.22-0.67-0.37-1.04-0.44
					c-0.37-0.07-0.78-0.06-1.15,0.04c-0.32,0.09-0.76,0.28-0.96,0.57c-0.02,0.02,0.01,0.06,0.03,0.05c0.15-0.05,0.28-0.15,0.42-0.21
					c0.17-0.07,0.35-0.12,0.53-0.16c0.35-0.08,0.7-0.1,1.05-0.03c0.34,0.06,0.66,0.21,0.94,0.4c0.15,0.1,0.29,0.22,0.41,0.35
					c0.12,0.12,0.21,0.27,0.35,0.37c0.01,0,0.01,0,0.02,0.01c0.01,0,0.01,0,0.02,0.01c0.01,0,0.01,0,0.02,0c0.01,0,0.01,0,0.01,0
					c0.04-0.01,0.08-0.02,0.12-0.03c0.03-0.01,0.06-0.03,0.1-0.04l0.1-0.04c0.02-0.01,0.04-0.02,0.06-0.04
					c0.01-0.01,0.03-0.02,0.04-0.03C75.21,32.38,75.22,32.32,75.21,32.29z"/>
				<path class="st4" d="M60.81,31.61c0.02-0.04,0.07-0.06,0.11-0.05c0.02,0,0.04,0.01,0.06,0.01c0.03,0.01,0.05,0.02,0.07,0.04
					c0.03,0.02,0.07,0.04,0.1,0.06c0.03,0.02,0.07,0.04,0.1,0.06c0.16-0.34,0.54-0.61,0.83-0.79c0.37-0.23,0.79-0.38,1.22-0.44
					c0.43-0.06,0.89-0.02,1.31,0.12c0.36,0.12,0.85,0.37,1.07,0.71c0.02,0.03-0.01,0.07-0.04,0.06c-0.16-0.07-0.31-0.19-0.47-0.26
					c-0.19-0.09-0.39-0.16-0.59-0.22c-0.39-0.11-0.79-0.16-1.2-0.11c-0.39,0.05-0.76,0.19-1.1,0.4c-0.17,0.11-0.34,0.23-0.49,0.37
					c-0.14,0.13-0.26,0.29-0.42,0.4c-0.01,0-0.01,0-0.02,0c-0.01,0-0.01,0-0.02,0.01c-0.01,0-0.01,0-0.02,0c-0.01,0-0.01,0-0.02,0
					c-0.04-0.01-0.09-0.02-0.13-0.04c-0.04-0.02-0.07-0.04-0.11-0.05l-0.11-0.05c-0.02-0.01-0.05-0.02-0.07-0.04
					c-0.01-0.01-0.03-0.03-0.04-0.04C60.8,31.7,60.79,31.64,60.81,31.61z"/>
				<path class="st4" d="M75.05,27.31c-0.45-0.48-1.18-0.72-1.8-0.78c-0.35-0.03-0.7,0-1.04,0.1c-0.32,0.1-0.69,0.24-0.92,0.5
					c-0.07,0.08,0,0.23,0.11,0.19c0.29-0.11,0.56-0.28,0.86-0.38c0.31-0.1,0.63-0.15,0.96-0.16c0.32-0.01,0.63,0.03,0.94,0.14
					c0.3,0.11,0.58,0.28,0.86,0.43C75.05,27.37,75.08,27.33,75.05,27.31z"/>
				<path class="st4" d="M65.73,26.4c-0.31-0.37-0.8-0.49-1.24-0.58c-0.49-0.11-0.98-0.13-1.48-0.11c-0.48,0.02-0.95,0.1-1.41,0.23
					c-0.47,0.13-0.97,0.33-1.38,0.61c-0.03,0.02-0.01,0.08,0.03,0.07c0.43-0.17,0.84-0.35,1.29-0.45c0.46-0.11,0.93-0.17,1.4-0.18
					c0.87-0.02,1.9,0.13,2.67,0.6C65.71,26.64,65.81,26.49,65.73,26.4z"/>
				<path class="st3" d="M66.63,46.13c0-0.06-0.03-0.13-0.09-0.16c-0.18-0.1-0.39-0.1-0.57-0.01c-0.04,0-0.07,0.02-0.1,0.04
					c-0.01,0.01-0.01,0.02-0.02,0.03c-0.05,0.06-0.06,0.14-0.01,0.2c0,0,0.01,0,0.01,0.01c0.02,0.03,0.04,0.06,0.07,0.08
					c0.07,0.04,0.15,0.04,0.22,0.04c0.07,0,0.13-0.01,0.2-0.02c0.03,0,0.05-0.01,0.08-0.02c0.01,0,0.03-0.01,0.04-0.01
					c0.02-0.01,0.04-0.01,0.05-0.02c0,0,0.01-0.01,0.01-0.01c0,0,0,0,0.01,0c0.01,0,0.01-0.01,0.01-0.01c0.01,0,0.01-0.01,0.01-0.01
					c0,0-0.01,0.01-0.01,0.01C66.6,46.25,66.63,46.19,66.63,46.13z"/>
				<g>
					<path class="st9" d="M70.67,41.26c0,0-0.17,0.39-0.51,0.9c-0.66,0.98-1.94,2.41-3.79,2.28c-1.81-0.12-1.75-1.61-1.48-2.67
						c0.15-0.59,0.37-1.05,0.37-1.05S67.16,42.38,70.67,41.26z"/>
					<path class="st3" d="M70.67,41.26c0,0-0.17,0.39-0.51,0.9l-0.27-0.3c-1.96,0.44-4.35-0.34-4.35-0.34l-0.65,0.26
						c0.15-0.59,0.37-1.05,0.37-1.05S67.16,42.38,70.67,41.26z"/>
				</g>
				<g>
					<path class="st8" d="M73.18,35.79c-0.02,0.01-0.03,0.02-0.04,0.04c-0.01,0.01-0.01,0.01-0.02,0.02c0.01-0.01,0.01-0.01,0,0
						c-0.03,0.03-0.05,0.07-0.08,0.1c-0.03,0.05-0.06,0.1-0.1,0.15c-0.01,0.01-0.01,0.02-0.02,0.03c0,0-0.02,0.02-0.02,0.03
						c0,0.01-0.01,0.01-0.01,0.02c-0.02,0.02-0.03,0.05-0.05,0.07c-0.01,0.01-0.02,0.02-0.02,0.03c0,0,0,0.01-0.01,0.01
						c-0.01,0.01-0.01,0.02-0.02,0.03c-0.01,0.01-0.02,0.02-0.02,0.04c-0.02,0.03-0.02,0.06-0.01,0.09
						c0.01,0.04,0.05,0.06,0.08,0.07c0.04,0,0.08-0.03,0.11-0.06c0.02-0.02,0.04-0.04,0.06-0.06c0.05-0.05,0.09-0.1,0.13-0.16
						c0.03-0.05,0.07-0.1,0.1-0.15c0.02-0.03,0.04-0.06,0.05-0.1c0-0.01,0-0.01,0-0.02c0-0.02,0-0.02,0-0.01c0,0.02,0-0.01,0-0.01
						c0.01-0.02,0.01-0.04,0.01-0.06C73.3,35.8,73.24,35.76,73.18,35.79z"/>
					<path class="st8" d="M74.52,35.78c-0.02,0.01-0.04,0.03-0.06,0.05c-0.01,0.01-0.02,0.02-0.03,0.02
						c-0.02,0.01-0.03,0.02-0.04,0.04c-0.03,0.05-0.06,0.09-0.09,0.14c-0.06,0.09-0.12,0.18-0.18,0.27c-0.02,0.03,0,0.07,0.02,0.09
						c0.03,0.02,0.07,0,0.09-0.02c0.06-0.09,0.13-0.18,0.19-0.26c0.03-0.04,0.06-0.09,0.09-0.13c0.02-0.02,0.02-0.05,0.03-0.08
						c0.01-0.03,0.02-0.05,0.03-0.08C74.58,35.79,74.55,35.76,74.52,35.78z"/>
					<path class="st8" d="M75.35,36.14c-0.01-0.04-0.06-0.07-0.1-0.06c-0.02,0.01-0.04,0.01-0.05,0.03
						c-0.01,0.01-0.02,0.02-0.02,0.04c-0.01,0.02-0.02,0.03-0.02,0.05c-0.02,0.03-0.03,0.06-0.05,0.09
						c-0.01,0.02-0.02,0.05-0.01,0.07c0.01,0.02,0.02,0.05,0.04,0.06c0.02,0.01,0.05,0.02,0.07,0.01c0.02-0.01,0.04-0.02,0.05-0.04
						c0.02-0.03,0.03-0.06,0.05-0.09c0.01-0.01,0.02-0.03,0.02-0.04c0.01-0.01,0.02-0.03,0.02-0.04
						C75.36,36.18,75.35,36.16,75.35,36.14z"/>
					<path class="st8" d="M61.23,35.45c-0.01-0.04-0.04-0.06-0.08-0.06c-0.04,0-0.07,0.02-0.09,0.05c-0.02,0.02-0.03,0.04-0.05,0.07
						c-0.02,0.03-0.05,0.07-0.07,0.1c-0.05,0.07-0.08,0.16-0.11,0.24c-0.01,0.02,0,0.05,0.01,0.07c0.01,0.02,0.02,0.03,0.04,0.04
						c0.04,0.02,0.08,0,0.11-0.04c0.04-0.07,0.08-0.14,0.12-0.2c0.02-0.03,0.04-0.07,0.06-0.1c0.01-0.02,0.02-0.03,0.03-0.05
						C61.23,35.53,61.24,35.49,61.23,35.45z"/>
					<path class="st8" d="M62.82,35.32c-0.13,0.05-0.22,0.16-0.3,0.27c-0.08,0.11-0.15,0.23-0.22,0.34
						c-0.03,0.06-0.01,0.13,0.05,0.16c0.06,0.03,0.12-0.01,0.14-0.07c0,0,0.01-0.03,0.01-0.02c0,0.01,0-0.01,0-0.01
						c0.01-0.01,0.01-0.03,0.02-0.04c0.01-0.03,0.03-0.05,0.05-0.08c0.03-0.05,0.07-0.11,0.1-0.15c0,0.01,0.01-0.01,0.01-0.01
						c0.01-0.01,0.01-0.01,0.02-0.02c0.01-0.01,0.02-0.02,0.03-0.04c0.02-0.03,0.04-0.06,0.06-0.09c0.03-0.05,0.07-0.1,0.1-0.15
						C62.9,35.36,62.87,35.29,62.82,35.32z"/>
					<path class="st8" d="M63.92,35.79c-0.03-0.02-0.06-0.01-0.09,0.01c0,0-0.01,0.01-0.01,0.01c0,0,0,0,0,0
						c-0.02,0.01-0.03,0.03-0.05,0.05c0,0-0.01,0.01-0.01,0.01c0,0,0,0,0,0c-0.01,0.01-0.01,0.02-0.02,0.03
						c-0.03,0.04-0.06,0.07-0.09,0.1c-0.03,0.03-0.06,0.07-0.1,0.1c-0.02,0.02-0.03,0.03-0.05,0.05c0,0-0.01,0.01-0.01,0.01
						c0,0-0.02,0.02-0.01,0.01c0.01-0.01,0,0-0.01,0c-0.01,0-0.01,0.01-0.02,0.01c-0.02,0.02-0.04,0.04-0.05,0.06
						c-0.01,0.03,0,0.07,0.02,0.09c0.02,0.02,0.04,0.04,0.07,0.04c0.03,0,0.06-0.01,0.08-0.03c0.07-0.06,0.14-0.13,0.21-0.2
						c0.03-0.04,0.07-0.08,0.1-0.13c0.01-0.02,0.03-0.04,0.04-0.06c0.02-0.03,0.02-0.05,0.03-0.08
						C63.96,35.85,63.95,35.81,63.92,35.79z"/>
				</g>
				<path class="st8" d="M57.41,32.89c-0.01,0.59-0.05,1.17-0.12,1.73c-0.37,3.08-1.58,5.62-3.18,6.81
					c-1.78-2.93-2.91-9.41-2.91-9.41c-0.26-3.27-0.08-6.1,0.43-8.53c0.22-0.05,0.44-0.07,0.67-0.06
					C55.2,23.48,57.49,27.71,57.41,32.89z"/>
				<path class="st8" d="M54.93,24.19c0.49-0.44,8.84-7.15,11.47-9.03c2.63-1.88,7.58-2.06,7.58-2.06s1.44,0.7-4.24,7.15
					c-4.27,4.85-14.49,6.59-14.49,6.59L54.93,24.19z"/>
				<path class="st8" d="M62.78,24.63c0,0,15.08-2.03,13.78-10.24l-1.16-0.59c0,0-1.16,4.31-2.91,5.97S62.78,24.63,62.78,24.63z"/>
				<path class="st7" d="M54.19,38.24c-1.84-0.39-3.13-1.55-3.95-2.95c-1.38-2.33-1.49-5.34-0.82-6.66
					c0.43-0.85,1.23-0.97,2.03-0.81c1.18,0.24,2.37,1.11,2.37,1.11L54.19,38.24z"/>
				<path class="st8" d="M50.93,30.61c0,0,1.45-0.07,2.49,1.55c1.04,1.61,0.52,2.66,0.52,2.66S52.99,31.82,50.93,30.61z"/>
				<path class="st4" d="M77.68,30.29c0,0,1.32-8-0.03-12.44c-1.35-4.44-4.03-4.13-4.03-4.13s-9.17,13.67-21.3,12.73
					c0,0,1.49-7.63,5.6-13.73c0.01-0.02,0.03-0.04,0.04-0.06c3.29-4.82,8.23-8.66,15.42-6.91c0.1,0.02,0.2,0.05,0.3,0.08
					c0.05,0.01,0.11,0.03,0.15,0.05c0.03,0.01,0.06,0.01,0.09,0.02c0.02,0.01,0.04,0.01,0.05,0.02c0.02,0,0.04,0.01,0.05,0.01
					c0,0,1.07,0.13,2.26,0.62c0.38,0.16,0.78,0.35,1.15,0.59c2.27,1.44,3.89,5.17,3.85,12.08C81.25,27.38,77.68,30.29,77.68,30.29z"
					/>
				<path class="st5" d="M54.74,25.74c0,0,1.68-16.37,14.94-20.9c0,0-6.87-1.9-11.64,5.1s-6.09,16.52-6.09,16.52L54.74,25.74z"/>
				<path class="st4" d="M75.46,9.68c0,0,5.38,12.11-15.3,15.43c0,0,15.55-4.84,13.36-13.68L75.46,9.68z"/>
				<path class="st3" d="M60.3,22.14c0,0,7.65-3.19,11.01-9.64C71.31,12.5,69.16,19.74,60.3,22.14z"/>
				<path class="st3" d="M62.95,1.35c-3.27-0.31-6.94-0.12-9.96,1.41C46,6.29,44.74,15.85,44.64,16.74
					c0.4-6.09,2.33-12.32,8.75-14.72C56.84,0.73,60.21,0.82,62.95,1.35z"/>
				<g>
					<path class="st10" d="M75.51,6.03c-0.16-0.05-3.3-1.11-5.6-0.79c-2.36,0.33-6.51,1.57-8.79,3.85
						c-2.28,2.28-4.57,6.52-5.44,8.44c-0.87,1.92-1.75,6.97-1.75,6.97l-0.35,0.49c0,0-0.81-1.63-3.17-1.26c0,0,0.25-1.2,0.75-2.95
						c0,0,0.01-0.05,0.04-0.13c0.84-2.91,2.35-7.27,4.56-10.27c3.6-4.88,7.68-6.33,13.39-6.81c0,0,0.72,0.12,1.79,0.44
						C72.17,4.38,73.87,5.01,75.51,6.03z"/>
					<path class="st3" d="M70.94,4.01c-2.39-0.17-5.81,0.09-9.53,1.96C54.78,9.29,51.57,19.4,51.2,20.65
						c0.84-2.91,2.35-7.27,4.56-10.27c3.6-4.88,7.68-6.33,13.39-6.81C69.15,3.57,69.87,3.69,70.94,4.01z"/>
					<path class="st6" d="M76.18,6.47c-4.63-3.4-12.93-0.89-16.9,4.32c-0.43,0.56-0.88,1.19-1.32,1.88
						c-0.01,0.02-0.03,0.04-0.04,0.06c-0.23,0.35-0.46,0.73-0.69,1.12c-1.64,2.81-3.14,6.49-3.65,11.14l0.55,0.1
						c0,0,0.21-6.08,4.13-11.96c0.41-0.62,0.87-1.25,1.37-1.86c4.15-5.06,9.74-6.48,13.73-5.51c0.1,0.02,0.2,0.05,0.3,0.08
						c0.05,0.01,0.1,0.03,0.15,0.05c0.03,0.01,0.06,0.01,0.09,0.02c0.02,0,0.04,0.01,0.05,0.02c0.02,0,0.04,0.01,0.05,0.01
						c0,0,1.07,0.13,2.26,0.62C76.25,6.52,76.22,6.5,76.18,6.47z"/>
					<path class="st3" d="M58.26,9.25c-0.2,0.28-0.52,0.39-0.72,0.23c-0.2-0.15-0.2-0.51,0-0.79c0.2-0.28,0.52-0.39,0.72-0.23
						C58.46,8.62,58.46,8.97,58.26,9.25z"/>
					<path class="st3" d="M59.53,8.47c-0.14,0.13-0.32,0.15-0.41,0.04c-0.09-0.1-0.05-0.29,0.08-0.42c0.14-0.13,0.32-0.15,0.41-0.04
						C59.7,8.16,59.66,8.34,59.53,8.47z"/>
				</g>
				<g>
					<path class="st10" d="M56.94,33.81c-0.52,4.34-2.71,7.59-5.27,7.55l-0.1,0c-0.36-0.02-0.71-0.1-1.05-0.25
						c-0.86-0.35-1.62-1.08-2.25-2.09c-0.17-0.26-0.32-0.55-0.46-0.85c-0.81-1.67-1.28-3.87-1.25-6.27
						c0.03-2.19,0.49-4.21,1.22-5.79c0,0,0-0.01,0-0.01c0.56-1.21,1.28-2.17,2.1-2.77l0,0c0.32-0.23,0.65-0.41,1-0.53
						c0.35-0.12,0.7-0.18,1.07-0.17c2.9,0.05,5.19,4.29,5.11,9.46C57.05,32.67,57.01,33.25,56.94,33.81z"/>
					<path class="st6" d="M56.94,33.81c-0.52,4.34-2.71,7.59-5.27,7.55c-1.31-0.02-2.5-0.9-3.4-2.34c-0.17-0.26-0.32-0.55-0.46-0.85
						c0.68-0.01,2.62,1.19,2.62,1.19S53.6,39,55.1,36.01c1.5-2.99,1.26-7.05,1.26-7.05S56.86,31.22,56.94,33.81z"/>
					<path class="st11" d="M50.07,40.01c-0.66-0.01-1.27-0.37-1.81-1c-1.09-1.74-1.75-4.28-1.71-7.11c0.03-2.19,0.49-4.2,1.22-5.78
						c0,0,0-0.01,0-0.01c0.69-1.21,1.58-1.93,2.54-1.92c2.1,0.04,3.75,3.6,3.68,7.98C53.93,36.53,52.17,40.04,50.07,40.01z"/>
					<g>
						<path class="st3" d="M55.53,35.5c-0.66,3.38-1.99,5.34-3.96,5.85l0,0c-0.36-0.02-0.71-0.1-1.05-0.25
							c2.4-0.02,3.92-1.89,4.66-5.68c0.83-4.29,0.21-8.49-1.61-10.98c-1.13-1.54-2.74-1.39-3.68-1.12c0.32-0.23,0.65-0.41,1-0.53
							c0.96-0.04,2.1,0.24,2.97,1.42C55.74,26.79,56.38,31.11,55.53,35.5z"/>
					</g>
				</g>
			</g>
			<g>
				<g>
					<path class="st7" d="M39,63.12c0,0-2.27,2.55-2.74,5.89c-0.47,3.34-1.38,45.58-1.19,46.76c0.19,1.18,1.35,3.09,1.63,3.09
						c0.28,0,4.54,0.54,5.66-1.81c1.12-2.36,4.3-31.53,4.96-37.82C47.98,72.95,43.21,64.01,39,63.12z"/>
					<path class="st9" d="M44.99,107.13c0.45,0.81,0.13,1.94-0.07,2.66c0,0.02,0,0.03-0.01,0.05c0,0.02-0.01,0.04-0.01,0.06
						c0,0.02-0.01,0.03-0.01,0.04c-0.05,0.18-0.08,0.33-0.08,0.43c0,0.31-0.15,2.55-0.83,4.68c0,0,0,0.01,0,0.01
						c-0.01,0.04-0.03,0.08-0.04,0.12c-0.04,0.14-0.09,0.27-0.14,0.4c-0.05,0.13-0.1,0.26-0.15,0.39c-0.06,0.14-0.12,0.29-0.19,0.43
						c-0.07,0.14-0.13,0.28-0.21,0.41c-0.18,0.34-0.39,0.66-0.62,0.94c-0.06,0.07-0.12,0.14-0.18,0.21
						c-0.08,0.09-0.17,0.18-0.26,0.26c-0.28,0.26-0.59,0.47-0.91,0.64c-1.79,0.95-3.08,0.83-3.57,0.72
						c-0.14-0.03-0.21-0.06-0.21-0.06l-0.08-0.62l-2.18-16.53v0l-0.18-1.34c0,0-1.34-2.66-1.01-3.76c0.03-0.09,0.05-0.18,0.08-0.27
						c0.28-0.99,0.39-1.86,0.39-1.86s0.54-8.27,0.54-14.05v-0.39c-0.03-5.79,0.68-12.28,0.68-12.28c0.23-0.53,0.51-1.08,0.83-1.62
						l0,0c0.43-0.75,0.9-1.48,1.31-2.1c0,0,0.01,0,0.01-0.01c0.53-0.79,0.97-1.37,1.09-1.53c0.03-0.03,0.04-0.05,0.04-0.05
						l4.62,19.92l2.23,9.59v0l0.45,1.93l-1.5,12.08C44.8,106.64,44.77,106.74,44.99,107.13z"/>
					<path class="st3" d="M38.11,68.33c0,0.22-0.17,0.39-0.37,0.39c-0.21,0-0.37-0.18-0.37-0.39c0-0.22,0.17-0.39,0.37-0.39
						C37.94,67.94,38.11,68.11,38.11,68.33z"/>
					<path class="st12" d="M42.13,81c0,0.15-0.28,11.3-0.28,11.3l1.03-9.14L42.13,81z"/>
					<polygon class="st12" points="46.3,94.56 44.8,106.64 43.42,104.45 42.86,81.76 43.62,83.04 					"/>
					<path class="st12" d="M44.75,110.13c0,0,0.47-0.34-0.14-1.33c-0.61-0.98-1.82-3.59-2.85-4.57c-1.03-0.98-3.51-3.14-3.51-3.14
						s2.76,3.09,3.51,4.03C42.51,106.05,44.75,110.13,44.75,110.13z"/>
					<path class="st12" d="M43.97,115.05C43.97,115.06,43.97,115.06,43.97,115.05c-0.01,0.05-0.03,0.09-0.04,0.13
						c-0.04,0.14-0.09,0.27-0.14,0.4c-0.05,0.13-0.1,0.26-0.15,0.39c-0.06,0.14-0.12,0.29-0.19,0.43c-0.07,0.14-0.13,0.28-0.21,0.41
						c-0.18,0.34-0.39,0.66-0.62,0.94c-0.06,0.07-0.12,0.14-0.18,0.21c-0.08,0.09-0.17,0.18-0.26,0.26
						c-0.28,0.26-0.59,0.47-0.91,0.64c-1.79,0.95-3.08,0.83-3.57,0.72c0.23-0.21,0.48-0.44,0.73-0.68c1.59-1.49,3.48-3.31,3.44-4.02
						c-0.07-1.14-0.99-8.14-0.99-8.14c0.87,1.59,1.63,3.31,2.18,4.82c0.1,0.26,0.18,0.51,0.26,0.76
						C43.7,113.46,43.93,114.43,43.97,115.05z"/>
					<path class="st12" d="M44.88,109.95c-0.05,0.18-0.08,0.33-0.08,0.43c0,0.31-0.15,2.55-0.83,4.68c0,0,0,0.01,0,0.01
						c-0.01,0.04-0.03,0.08-0.04,0.12c-0.04,0.14-0.09,0.27-0.14,0.4l-0.21-0.39l-0.4-1.98l-0.3-1.51c0,0,0.07-0.03,0.18-0.13
						c0.13-0.12,0.33-0.33,0.48-0.69c0.19-0.43,0.34-1.07,0.29-2c-0.01-0.15-0.02-0.3-0.04-0.47c-0.02-0.16-0.04-0.32-0.07-0.49
						l0.19,0.33L44.88,109.95L44.88,109.95z"/>
					<path class="st3" d="M36.55,66.81c-0.27,0.62-0.55,1.32-0.59,1.62c-0.09,0.59-0.28,4.17-0.33,6.73s-0.59,23.39-0.59,23.39
						l-0.93-1.54c0.28-0.99,0.39-1.86,0.39-1.86s0.54-8.27,0.54-14.05v-0.39c-0.03-5.79,0.68-12.28,0.68-12.28
						C35.96,67.9,36.24,67.35,36.55,66.81z"/>
				</g>
				<g>
					<path class="st12" d="M17.89,93.92c0,0,0.63-7.02,3.72-11.05l3.71,13.6C25.32,96.47,20.63,98.05,17.89,93.92z"/>
					<g>
						<path class="st8" d="M19.25,69.54c0-0.23-0.73-3.07-1.17-3.83c-0.44-0.77-0.15-1.76,1.24-1.46c1.39,0.31,2.12,3.22,2.12,3.22
							L19.25,69.54z"/>
						<path class="st7" d="M28.82,76.22c-0.44,0.99-1.54,1.53-1.54,1.53s0.46,0.78,0.09,3.12c-0.09,0.57-0.22,1.24-0.43,2.01
							c0,0-1.34,1.78-2.22,2.01c-0.87,0.23-3.11-0.54-3.11-0.54s-4.55-10.2-4.77-11.27c-0.08-0.42,0.64-1.81,1.84-3.53
							c0,0,0,0,0.01-0.01c1.87-2.69,4.87-6.18,7.72-8.05c0,0,0.23-0.05,0.5-0.03c0.29,0.03,0.63,0.14,0.81,0.49
							c0.05,0.09,0.02,0.27-0.07,0.51c-0.54,1.53-3.38,5.56-3.57,5.84l-0.01,0.02c0,0,1.46-0.15,2.12,1.08
							c0.66,1.23,0.37,1.84,0.37,1.84s1.75,0.54,1.53,1.61c-0.03,0.12-0.05,0.24-0.08,0.35c-0.19,0.8-0.4,1.32-0.43,1.4
							c0,0.01-0.01,0.01-0.01,0.01S29.25,75.22,28.82,76.22z"/>
						<path class="st3" d="M26.91,61.46c-2.52,1.58-8,7.81-8.22,8.08c1.87-2.69,4.87-6.18,7.72-8.05
							C26.41,61.49,26.64,61.44,26.91,61.46z"/>
						<path class="st8" d="M18.06,73.78c0,0,1.87,1.18,2.29,1.57c0.42,0.39,0.75,1.42,0.37,1.28
							C20.35,76.48,18.76,74.72,18.06,73.78z"/>
						<path class="st8" d="M27.28,77.75l-0.99,0.56c0,0,0.59,1.36,0.88,0.92C27.48,78.74,27.28,77.75,27.28,77.75z"/>
						<path class="st8" d="M28.01,73.19c-0.19,0.8-0.4,1.32-0.43,1.4c0,0.01-0.01,0.01-0.01,0.01l-2.09,0.97
							C25.48,75.58,27.45,73.54,28.01,73.19z"/>
						<path class="st8" d="M26.55,71.23l-1.84,1.18c0,0,1.33-2.47,1.51-2.32S26.55,71.23,26.55,71.23z"/>
						<path class="st8" d="M27.66,62.46c-0.54,1.53-3.38,5.56-3.57,5.84l-0.01,0.02l-1.85,0.92c0.15-0.21,4.88-6.85,5.26-6.88
							C27.55,62.34,27.61,62.39,27.66,62.46z"/>
						<path class="st7" d="M41.72,115.68c-0.37,1.77-3.5,2.9-5.37,2.6c-1.07-0.17-5.17-7.38-8.74-15.99
							c-0.58-1.4-1.15-2.83-1.7-4.25c-0.56-1.46-1.1-2.91-1.59-4.33c-0.05-0.13-0.09-0.26-0.13-0.39c-1.18-3.38-2.11-6.52-2.58-8.98
							l5.33-1.47c0,0,0,0,0,0c0.06,0.13,1.15,2.44,2.57,5.34c1.2,2.44,2.64,5.29,3.92,7.6c0.68,1.23,1.31,2.3,1.83,3.07
							C37.98,102.91,42.1,113.91,41.72,115.68z"/>
						<path class="st8" d="M25.92,98.04c-0.56-1.46-1.1-2.91-1.59-4.33c-0.05-0.13-0.09-0.26-0.13-0.39
							c2.46-3.21,1.44-8.93,1.44-8.93l1.31-1.52c0,0,0,0,0,0c0.06,0.13,1.15,2.44,2.57,5.34c0.29,1.28,0.49,2.57,0.61,3.65
							C30.37,94.16,27.34,96.9,25.92,98.04z"/>
					</g>
					<path class="st9" d="M42.43,116.1c-0.01,0.05-0.01,0.1-0.02,0.15c-0.05,0.27-0.14,0.53-0.28,0.79
						c-0.07,0.12-0.13,0.25-0.22,0.37c-0.72,1.04-2.08,1.85-3.62,2.09c-0.19,0.03-0.38,0.05-0.57,0.06c-0.08,0-0.16,0-0.24-0.03
						c-0.21-0.05-0.44-0.17-0.69-0.35c0,0-0.01,0-0.01-0.01c-0.54-0.39-1.17-1.08-1.82-1.93c0,0,0-0.01,0-0.01
						c-1.65-2.14-3.49-5.31-4.69-7.48c-0.75-1.36-1.25-2.33-1.31-2.42v0l-0.01-0.02c0,0-0.01-0.02-0.01-0.03
						c-0.28-0.42-1.53-1.75-1.87-2.61c-0.05-0.13-0.15-0.46-0.26-0.93c-0.05-0.21-0.11-0.44-0.18-0.7
						c-0.26-1.06-0.59-2.49-0.91-3.89c-0.21-0.93-0.42-1.85-0.59-2.63c-0.14-0.61-0.26-1.14-0.34-1.54c0,0,0,0,0,0
						c-0.11-0.48-0.17-0.77-0.17-0.77l0.09-0.03l5.36-1.39l1.56-0.41l0.35-0.09c0,0,0.38,0.56,0.87,1.31c0,0,0,0,0,0.01
						c0.01,0.01,0.01,0.02,0.03,0.03c0.2,0.31,0.42,0.65,0.63,0.99c0.06,0.1,0.13,0.2,0.19,0.3c0.61,0.98,1.14,1.92,1.16,2.22
						c0.05,0.69,2.46,4.64,2.46,4.64s2.81,3.61,3.44,4.64C41.37,107.48,42.64,114.33,42.43,116.1z"/>
					<path class="st12" d="M42.43,116.1c-0.01,0.05-0.01,0.1-0.02,0.15c-0.05,0.26-0.14,0.52-0.28,0.79
						c-0.07,0.12-0.13,0.25-0.22,0.37c-0.72,1.04-2.08,1.85-3.62,2.09c-0.19,0.03-0.38,0.05-0.57,0.06c-0.08,0-0.16,0-0.24-0.03
						c-0.21-0.05-0.44-0.17-0.69-0.35c0,0-0.01,0-0.01-0.01c-0.33-0.36-0.56-0.74-0.72-1.05c-0.17-0.34-0.25-0.58-0.25-0.58
						s3.05-0.4,3.5-2.56c0.45-2.16-0.87-10.02-1.76-11.21c-0.89-1.19-4.28-2.47-4.39-2.27c0,0,0,0,0-0.01
						c0.01-0.08,0.07-0.75,0.36-2.13c0.21-0.97,0.25-2.05,0.25-2.67c0-0.11,0-0.2,0-0.28c0-0.15,0-0.24,0-0.24l-0.24-0.66
						l-0.31-0.86l-0.27-0.74l-0.11-0.3c0.01,0.01,0.01,0.02,0.03,0.03c0.2,0.31,0.42,0.65,0.63,0.99c0.06,0.1,0.13,0.2,0.19,0.3
						c0.61,0.98,1.14,1.92,1.16,2.22c0.05,0.69,2.46,4.64,2.46,4.64s2.81,3.61,3.44,4.64C41.37,107.48,42.64,114.33,42.43,116.1z"/>
					<path class="st12" d="M33.79,95.12c-0.19-0.31-0.39-0.63-0.59-0.94c0,0.38,0.05,0.87,0.05,0.87s0.51,1.52,0.47,2.75
						c-0.05,1.23-5.85,6.78-5.85,7.22s1.08,2.31,1.08,2.31s4.84-6.09,5.08-7.61C34.24,98.5,34.11,96.55,33.79,95.12z"/>
					<path class="st12" d="M33.81,96.47c-0.07,2.14-5.22,6.03-7.01,7.27c-0.28-1.07-0.69-2.85-1.08-4.59
						c0.74-1.52,2.37-3.94,3.71-5.55C31.2,91.49,33.89,93.91,33.81,96.47z"/>
					<path class="st10" d="M33.53,95.55c-0.03,0.09-0.06,0.18-0.09,0.26c-0.75,1.93-3.35,4.53-5.82,6.48
						c-2.19,1.73-4.26,2.94-4.85,2.73c-0.05-0.02-0.11-0.04-0.16-0.06c-1.21-0.5-2.4-1.66-3.54-4.65c-0.23-0.61-0.42-1.22-0.57-1.82
						c0,0,0,0,0-0.01c-0.29-1.16-0.44-2.24-0.52-3.06c-0.08-0.91-0.08-1.5-0.08-1.5c0.87,0.88,1.45,1.84,5.52,0.3
						c0.33-0.13,0.63-0.29,0.91-0.5c1.05-0.77,1.77-2.05,2.25-3.41c0-0.01,0-0.01,0-0.01c1-2.78,1.07-5.92,1.07-5.92v0
						c-0.44-0.92-0.71-1.49-0.71-1.49c0.2-0.73,0.33-1.37,0.42-1.93c0.01-0.03,0.01-0.05,0.01-0.08c1.01,0.61,2.8,1.8,4.3,3.5
						C33.91,86.89,34.64,91.93,33.53,95.55z"/>
					<path class="st3" d="M36.25,114.89c0,0.25-0.19,0.46-0.43,0.46c-0.24,0-0.43-0.2-0.43-0.46c0-0.25,0.19-0.46,0.43-0.46
						C36.06,114.44,36.25,114.64,36.25,114.89z"/>
					<path class="st3" d="M35.17,114.05c0,0.11-0.08,0.2-0.19,0.2c-0.1,0-0.19-0.09-0.19-0.2c0-0.11,0.08-0.2,0.19-0.2
						C35.08,113.85,35.17,113.94,35.17,114.05z"/>
					<path class="st6" d="M32.98,92.89c-0.18-3.14-5.32-8.52-5.32-8.52l-0.01-0.01v0c-0.44-0.92-0.71-1.49-0.71-1.49
						c0.2-0.73,0.33-1.37,0.42-1.93c0.72,0.44,2.52,1.64,4.12,3.55C33.54,86.95,32.98,92.89,32.98,92.89z"/>
					<path class="st6" d="M30.15,88.03c0,0,1.82,2.03,2.07,3.65c0,0-1.79-2.76-2.98-3.76L30.15,88.03z"/>
					<path class="st3" d="M26.58,90.3c-0.04,0.26-0.87,4.19-4.68,4.97c-3.73,0.76-3.68-0.46-3.68-0.46l0.28,3.68c0,0,0,0,0-0.01
						c-0.29-1.16-0.44-2.24-0.52-3.06c-0.08-0.91-0.08-1.5-0.08-1.5c0.87,0.88,1.45,1.84,5.52,0.3c0.33-0.13,0.63-0.29,0.91-0.5
						C25.38,92.95,26.09,91.67,26.58,90.3z"/>
					<path class="st12" d="M30.27,109.76c-0.75-1.36-1.25-2.33-1.31-2.42l1.77-3.19l0.62-0.39
						C31.47,103.92,30.61,108.14,30.27,109.76z"/>
				</g>
			</g>
			<g>
				<g>
					<path class="st7" d="M141.95,103.14c-0.17-0.06-2.48-0.92-3.75-1.4c-0.5-0.19-0.83-0.31-0.83-0.31l-0.64,0.92l-1.92,2.76
						l-2.72,0.1l-2.02,0.07c0,0,0,0,0.01,0c0.09-0.08,1.15-0.99,2.44-2.05c1.85-1.55,4.17-3.43,4.71-3.66
						c0.72-0.32,4.43,1.55,6.24,2.61c0.54,0.32,0.91,0.56,0.99,0.66C144.75,103.23,142.18,103.23,141.95,103.14z"/>
					<path class="st8" d="M144.44,102.82c-0.14-0.19-1.47-0.97-2.96-1.73c-1.37-0.17-3.53-0.43-3.94-0.39
						c-0.61,0.05-4.3,3.34-4.3,3.34s0.7,0.4,1.72,0.84l2.41-3.45c0,0,4.35,1.63,4.59,1.71
						C142.18,103.22,144.75,103.22,144.44,102.82z"/>
					<g>
						<path class="st7" d="M79.83,54.43c0,0,5.61,5.16,8.98,10.61c3.37,5.45,17.4,23.28,18.1,25.49c0.7,2.21-2.67,5.75-3.51,5.6
							c-0.84-0.15-21.47-17.98-23.99-21.37C76.88,71.38,79.83,54.43,79.83,54.43z"/>
						<path class="st7" d="M130.06,105.27l-2.66,4.27c0,0-0.43-0.22-1.19-0.61c-3.95-2.01-16.68-8.6-22.8-12.81
							c0,0-1.26-5.16,1.68-7.07c0,0,0.57,0.27,1.42,0.67c1.14,0.54,2.81,1.31,4.33,1.98C113.5,92.89,125.15,102.91,130.06,105.27z"
							/>
					</g>
					<path class="st7" d="M150.11,103.72c0,0-0.17,0.53-0.49,0.99c-0.16,0.24-0.37,0.45-0.61,0.56c0,0-0.29,0.56-0.7,1.03
						c-0.29,0.34-0.65,0.65-1.01,0.68c0,0-0.19,0.36-0.54,0.73c-0.19,0.21-0.43,0.42-0.71,0.58c-0.23,0.13-0.49,0.22-0.78,0.24
						c-0.24,0.02-0.64-0.01-1.13-0.07c-2.03-0.22-5.63-0.91-5.94-0.91c-0.31,0-3.44,1.53-4.97,2.5c-0.4,0.25-0.69,0.46-0.79,0.6
						c-0.28,0.39-1.21,0.35-2.42-0.01c-0.8-0.24-1.72-0.62-2.65-1.11c0,0,0.72-3.38,2.66-4.27c0,0,0,0,0.01,0
						c0.08-0.03,0.99-0.45,2.22-0.99c1.33-0.59,3.03-1.33,4.44-1.93c0.55-0.23,1.05-0.44,1.48-0.61c0.53-0.21,0.92-0.35,1.11-0.39
						c0.48-0.11,2.19,0.3,4.14,0.81C145.95,102.81,148.85,103.62,150.11,103.72z"/>
					<path class="st8" d="M144.51,108.07c-0.83-0.07-1.86-0.18-2.81-0.4c-1.81-0.42-3.18-0.84-3.18-0.84l-0.12,0.42
						c0,0-0.34,0.07-0.45,0c-0.11-0.08-5.07,1.95-5.1,2.14c-0.04,0.18,0.39,0.66,0.39,0.66c1.53-0.97,4.66-2.5,4.97-2.5
						c0.35,0,4.82,0.86,6.6,0.97c0,0,0,0,0,0c0.09,0.01,0.17,0.01,0.24,0.01c0.01,0,0.03,0,0.04,0c0.07,0,0.14,0,0.19,0
						c0.28-0.02,0.54-0.11,0.78-0.24c0.28-0.16,0.52-0.37,0.71-0.58C145.66,108.08,144.51,108.07,144.51,108.07z"/>
					<path class="st7" d="M139.62,113.4c-0.9,0.01-2.2,0.11-3.43,0.18c-1.48,0.08-2.86,0.12-3.33-0.07c-0.53-0.21-2-1.29-3.28-2.26
						c-0.17-0.13-0.33-0.26-0.49-0.38c-0.95-0.73-1.69-1.33-1.69-1.33l3.46-0.44l1.3-0.16l1.1,1.12l1.24,1.25
						c0,0,1.24-0.08,2.8,0.16c0.96,0.15,1.92,0.86,2.52,1.39C140.01,113.04,139.89,113.4,139.62,113.4z"/>
					<path class="st8" d="M136.19,113.58c-1.48,0.08-2.86,0.12-3.33-0.07c-0.53-0.21-2-1.29-3.28-2.26
						c-0.17-0.13-0.33-0.26-0.49-0.38c0.21-0.77,0.87-1.51,0.87-1.51s3.05,3.39,3.33,3.57
						C133.47,113.05,135.14,113.38,136.19,113.58z"/>
					<path class="st8" d="M132.5,103.21c-0.06,0.32-0.13,0.67-0.21,1.06c-0.06,0.29-0.13,0.61-0.21,0.93
						c-0.3,1.26-0.71,2.69-1.23,3.91c-0.24,0.57-0.51,1.1-0.81,1.55c-0.15,0.22-0.3,0.42-0.47,0.6c-0.17-0.13-0.33-0.26-0.49-0.38
						c-0.95-0.73-1.69-1.33-1.69-1.33s-0.43-0.22-1.19-0.61c0.78-1.01,2.43-3.01,3.86-3.67c0,0,0,0,0.01,0
						C130.16,105.18,131.22,104.28,132.5,103.21z"/>
					<path class="st8" d="M148.32,106.3c-0.29,0.34-0.65,0.65-1.01,0.68c0,0-6.48-2.01-6.88-2.06c-0.4-0.05-2.17,0.12-2.17,0.12
						s2.2-0.44,2.41-0.44C140.87,104.6,146.22,106.67,148.32,106.3z"/>
					<path class="st8" d="M149.63,104.7c-0.16,0.24-0.37,0.45-0.61,0.56l-4.94-1.35C144.4,103.99,148.64,104.98,149.63,104.7z"/>
					<path class="st8" d="M136.7,103.99l3.46-0.93l1.33,0.17c0,0-1.38-0.37-1.45-0.37C139.97,102.86,136.7,103.99,136.7,103.99z"/>
				</g>
				<g>
					<path class="st9" d="M123.26,99.97l-3.2,5.85c0,0-3.2-1.06-4.37-1.48c-0.04-0.02-0.08-0.03-0.12-0.04
						c-0.03-0.01-0.07-0.02-0.09-0.03c-0.05-0.02-0.08-0.03-0.08-0.03c-0.46-0.18-1.38-1.12-2.06-1.87c0,0,0,0-0.01,0
						c-4.5-2.33-9.69-5.04-10.25-5.46c-1-0.77-18.35-14.48-18.35-14.48s-1.11-3.78-2.31-8.6c-0.5-2.01-1.01-4.19-1.47-6.36
						c-0.95-4.5-1.65-8.92-1.45-11.5c0.05-0.63,0.15-1.15,0.32-1.54c0,0,4.97,4.3,8.54,8.51c3.57,4.21,16.76,24.35,17.32,24.35
						c0.57,0,0.91,0.22,1.12,0.5h0c0.35,0.49,0.28,1.17,0.28,1.17s5.67,2.38,7.22,3.15C115.86,92.88,123.26,99.97,123.26,99.97z"/>
					<path class="st12" d="M119.82,101.95c-0.91-1.03-8.14-2.12-8.14-2.12c-2.24-1.02-8.44-6.9-8.44-6.9s-1.31-0.95-1.87-1.28
						c-0.53-0.31-8.45-11.56-11.25-15.31c-0.29-0.59-0.54-1.14-0.74-1.59c-0.89-1.98-7.25-13.91-9.87-18.8
						c-0.2,2.58,0.5,7,1.45,11.5c0.11,0.5,0.21,1,0.32,1.5c0.02,0.11,0.05,0.22,0.07,0.33c0.09,0.38,0.17,0.76,0.26,1.14
						c0.04,0.19,0.09,0.38,0.13,0.57c0.07,0.31,0.14,0.61,0.22,0.91c0.06,0.26,0.12,0.52,0.19,0.78c0.08,0.31,0.15,0.62,0.23,0.92
						c0.02,0.07,0.04,0.15,0.05,0.22c0,0,0,0,0,0c1.2,4.82,2.31,8.6,2.31,8.6s17.35,13.71,18.35,14.48
						c0.56,0.43,5.75,3.14,10.25,5.46c0,0,0.01,0,0.01,0s0.86-0.35,1.42,0.02c0.55,0.37,0.64,1.84,0.64,1.84s0.03,0.01,0.08,0.03
						c0.03,0.01,0.06,0.02,0.09,0.03c0.04,0.01,0.07,0.02,0.12,0.04c0.69,0.24,2.4,0.79,2.75,0.54
						C118.89,104.57,120.73,102.98,119.82,101.95z"/>
					<path class="st10" d="M116.66,104.97c0,0,5.54-7.29,8.49-9.06c0,0,9.19,3.09,9.47,3.98c0.28,0.88-8.42,10.54-8.84,10.76
						C125.36,110.87,117.57,105.71,116.66,104.97z"/>
					<path class="st6" d="M132.23,101.51c-0.11-0.07-4.38-3.35-4.38-3.35l5.65,2.76L132.23,101.51z"/>
					<path class="st12" d="M107.1,88.96c0,0-1.73,0.43-3.06,2.16c0,0,2.01-3.72,2.78-3.33h0C107.16,88.28,107.1,88.96,107.1,88.96z"
						/>
				</g>
			</g>
			<g>
				<g>
					<path class="st7" d="M97.93,135.92c-14.03,14.44-54.44,6.63-54.44,6.63c0.17-1.26,1.26-5.88,2.54-11.05
						c0.47-1.9,0.96-3.88,1.45-5.8c1.58-6.29,3.03-11.89,3.03-11.89s-0.07-0.2-0.18-0.57c-0.07-0.2-0.13-0.42-0.21-0.65
						c-0.01-0.02-0.01-0.04-0.02-0.06C46.92,102.29,37.53,65.8,39,63.12c0.9-1.63,6.59-5.63,11.17-8.68
						c3.25-2.16,5.94-3.84,5.94-3.84s1.5-0.3,3.74-0.32c0.5-0.01,1.03,0,1.59,0.03c0.95,0.05,2.97,0.38,5.35,0.85
						c0.59,0.11,1.21,0.24,1.83,0.37c0.81,0.17,1.64,0.35,2.46,0.53c0,0,0,0,0,0c2.68,0.6,5.28,1.23,6.95,1.72
						c0.97,0.28,1.63,0.51,1.79,0.65c0.04,0.03,0.09,0.12,0.15,0.25c0.39,0.84,1.19,3.57,2.11,7.02l0,0
						c0.87,3.23,1.86,7.1,2.74,10.64c0.04,0.19,0.09,0.37,0.13,0.55c0.31,1.25,0.61,2.46,0.87,3.57c0.74,3.05,1.28,5.43,1.42,6.25
						c0.03,0.15,0.05,0.32,0.07,0.51c0,0.07,0.01,0.14,0.01,0.21c0,0.01,0,0.02,0,0.03c0.24,4.06-1.46,15.31-3.17,29.9
						c-0.04,0.37,0.49,1.5,1.37,3.09c0.74,1.33,1.73,2.97,2.82,4.73c0.49,0.8,1.01,1.62,1.53,2.45c1.63,2.57,3.35,5.21,4.77,7.38
						C96.56,133.88,97.93,135.92,97.93,135.92z"/>
					<path class="st8" d="M46.03,131.5c0,0,14.94,3.77,25.05-0.48c0,0-7.67-20.74-11.13-38.82L46.03,131.5z"/>
				</g>
				<path class="st8" d="M79.83,54.43c-0.16-0.14-0.82-0.37-1.79-0.65l-0.45-0.89c-1.73-0.58-6.35-0.82-6.5-0.83c0,0,0,0,0,0
					c-0.82-0.18-1.65-0.36-2.46-0.53c0,0,0,0,0,0c-0.62-0.13-1.24-0.26-1.83-0.37c-2.37-0.47-4.4-0.81-5.35-0.85
					c-0.56-0.03-1.1-0.03-1.59-0.03c0.27,0.29,0.55,0.57,0.84,0.85c1.28,1.22,2.77,2.33,4.45,3.06c0,0,0,0,0,0l0,0
					c0,0,3.53,1.31,6.9,2c2.99,0.62,6.12,0.96,7.23,0.03c0.09-0.07,0.16-0.15,0.22-0.24c0.3-0.43,0.45-0.86,0.47-1.29
					C79.92,54.55,79.87,54.46,79.83,54.43z"/>
				<g>
					<path class="st13" d="M97.93,135.92c-0.41,0.42-0.84,0.83-1.3,1.21c-2.41,2.05-5.41,3.57-8.74,4.7
						c-1.33,0.45-2.72,0.84-4.15,1.16c-17.31,3.99-40.25-0.44-40.25-0.44c0.17-1.26,1.26-5.88,2.54-11.05
						c0.47-1.9,0.96-3.88,1.45-5.8c7.22-0.61,27.96-2.87,38.08-9.24c0.74,1.33,1.73,2.97,2.82,4.73c0.08,0.13,0.16,0.25,0.23,0.38
						c0.42,0.68,0.86,1.37,1.3,2.07c1.63,2.57,3.35,5.21,4.77,7.38C96.56,133.88,97.93,135.92,97.93,135.92z"/>
					<path class="st14" d="M97.93,135.92c-0.41,0.42-9.73-11.3-9.73-11.3s0.24-2.42,0.4-3.05c0.42,0.68,0.86,1.37,1.3,2.07
						c1.63,2.57,3.35,5.21,4.77,7.38C96.56,133.88,97.93,135.92,97.93,135.92z"/>
					<path class="st14" d="M71.08,131.02c0,0-1.21-3.28-2.89-8.36c-7.91,1.74-15.84,2.6-20.09,2.98l-2.07,5.85
						C46.03,131.5,60.97,135.26,71.08,131.02z"/>
					<path class="st14" d="M87.89,141.82c-1.33,0.45-2.72,0.84-4.15,1.16l-1.97-13.36L87.89,141.82z"/>
				</g>
				<g>
					<path class="st3" d="M84.18,113.37c1.83-15.62,3.65-27.41,3.09-30.65c-0.53-3.04-6.59-27.55-7.44-28.29
						c-0.38-0.33-3.57-1.18-7.23-2.03c0.92,4.29,2.17,14.22-5.73,15.05c-8.76,0.93-13.52-9.4-15.22-13.99
						c-0.47,0.31-0.97,0.64-1.48,0.98C45.59,57.49,39.9,61.49,39,63.12c-1.48,2.67,7.92,39.17,11.09,49.41
						c0.01,0.02,0.01,0.05,0.02,0.06c0.07,0.23,0.14,0.45,0.21,0.65c0.12,0.37,0.18,0.57,0.18,0.57s-0.22,0.85-0.58,2.25
						c4.11,0.39,22.67,1.93,34.81-1.14C84.36,114.15,84.15,113.6,84.18,113.37z"/>
					<path class="st15" d="M80.6,80.8c0,0-3.25,5.83-4.93,7.54c-1.68,1.7-4.96,2.78-4.96,2.78l-1.43-2.06c0,0-3.81,2.11-7.92,1.4
						c-4.12-0.71-11.22-2.7-11.22-2.7l3.48,8.38l8.64,7.08c0,0,1.54-5.56,4.82-4.73c3.27,0.84,13.53,6.39,13.53,6.39
						s-7.27-6.27-6.62-7.41c0.65-1.14,10.03-0.7,10.03-0.7L80.6,80.8z"/>
					<polygon class="st15" points="78.39,84.54 79.22,96.77 82.25,105.27 81.11,88.34 					"/>
					<path class="st15" d="M51.45,116.19c3.02,0.25,8.63,0.63,14.86,0.59c-2.23-7.2-4.75-16.18-6.36-24.59L51.45,116.19z"/>
				</g>
				<g>
					<path class="st14" d="M60.53,88.88c-0.08-1.05-0.13-2.11-0.25-3.16c-0.1-0.95-0.09-1.94-0.33-2.87
						c-0.11-0.43-0.27-0.92-0.53-1.27c-0.15-0.2-0.56-0.48-0.78-0.22c-0.25,0.29-0.19,0.61-0.13,0.97c0.07,0.44,0.13,0.88,0.19,1.32
						c0.12,0.9,0.14,1.83,0.26,2.73c0.12,0.96,0.24,1.92,0.33,2.88c0.08,0.9,0.16,1.98,0.61,2.77c0.15,0.26,0.5,0.19,0.59-0.08
						C60.79,90.99,60.6,89.85,60.53,88.88z"/>
					<path class="st14" d="M62.53,82.56c-0.56,0.82-0.99,1.73-1.51,2.58c-0.26,0.42-0.53,0.83-0.79,1.24
						c-0.27,0.42-0.7,0.81-0.77,1.33c-0.04,0.31,0.18,0.68,0.53,0.55c0.53-0.19,0.82-0.72,1.13-1.18c0.3-0.43,0.58-0.86,0.82-1.33
						c0.49-0.92,0.98-1.9,1.15-2.95C63.15,82.44,62.73,82.25,62.53,82.56z"/>
					<path class="st14" d="M64.54,91.2c-0.08-0.25-0.18-0.5-0.33-0.71c-0.14-0.2-0.29-0.39-0.43-0.59
						c-0.29-0.41-0.57-0.84-0.89-1.22c-0.3-0.35-0.61-0.71-0.95-1.02c-0.36-0.33-0.73-0.76-1.2-0.86c-0.21-0.05-0.43,0.14-0.36,0.38
						c0.14,0.47,0.51,0.8,0.81,1.17c0.29,0.37,0.59,0.73,0.88,1.1c0.26,0.34,0.54,0.68,0.79,1.03c0.29,0.41,0.51,0.86,0.87,1.23
						C64.06,92.04,64.71,91.71,64.54,91.2z"/>
					<path class="st14" d="M68.41,81.47c-0.95-0.69-2.49-0.57-3.36,0.23c-0.49,0.45-0.16,1.07-0.07,1.63
						c0.13,0.75,0.26,1.51,0.4,2.26c0.15,0.87,0.33,1.73,0.49,2.6c0.15,0.82,0.27,1.67,0.59,2.44c0.09,0.21,0.37,0.08,0.38-0.11
						c0.03-0.7-0.11-1.41-0.22-2.09c-0.11-0.68-0.22-1.36-0.33-2.04c1.07,0.03,2.27-0.77,2.76-1.76
						C69.56,83.54,69.41,82.18,68.41,81.47z M68.18,83.44c-0.18,1.17-1.22,1.44-2.07,1.91c-0.07-0.4-0.13-0.8-0.2-1.2
						c-0.06-0.35-0.12-0.7-0.18-1.04c-0.03-0.16-0.11-0.42-0.07-0.59c0.04-0.16,0.08-0.15,0.25-0.23
						C66.87,81.8,68.41,81.98,68.18,83.44z"/>
					<path class="st9" d="M73.99,81.31c-0.57,0.21-0.99,0.68-1.33,1.2c-0.38-0.28-0.97-0.34-1.41-0.27
						c-0.37,0.06-0.73,0.22-0.95,0.55c-0.25,0.38-0.23,0.83-0.14,1.26c0.17,0.87,0.56,1.68,1.06,2.38c0.38,0.53,0.9,1.13,1.54,1.27
						c0.01,0.03,0.01,0.05,0.02,0.08c0.05,0.14,0.15,0.22,0.29,0.24c0.51,0.04,0.8-0.6,1.04-0.97c0.28-0.43,0.49-0.88,0.71-1.35
						c0.38-0.82,0.7-1.73,0.65-2.66C75.44,82.2,74.99,80.93,73.99,81.31z"/>
					<path class="st14" d="M79.25,79.37c-0.8-0.9-2.02-0.85-2.91-0.13c-0.53,0.43-0.46,0.92-0.4,1.56c0.07,0.75,0.14,1.49,0.21,2.24
						c0.16,1.71,0.24,3.47,0.57,5.16c0.04,0.2,0.31,0.14,0.33-0.05c0.11-1.31,0.03-2.66-0.06-3.97c0.45-0.03,0.91-0.24,1.29-0.47
						c0.5-0.29,0.9-0.69,1.19-1.21C80.01,81.5,80.03,80.27,79.25,79.37z M78.94,81.31c-0.1,0.55-0.45,1-0.88,1.32
						c-0.36,0.26-0.77,0.34-1.17,0.48c-0.04-0.47-0.07-0.94-0.11-1.41c-0.03-0.36-0.07-0.72-0.1-1.07c-0.04-0.4-0.07-0.61,0.3-0.83
						C78.05,79.17,79.17,80.06,78.94,81.31z"/>
				</g>
				<path class="st9" d="M68.39,130.81c0,0-10.84,2.07-22.36,0.69c-0.5-0.06-1.01-0.13-1.52-0.2l5.99-17.49l0-0.01
					c-0.01-0.05-0.08-0.24-0.18-0.56c-0.05-0.18-0.12-0.4-0.21-0.65c-0.01-0.02-0.01-0.04-0.02-0.06c0-0.01-0.01-0.02-0.01-0.03
					C46.9,102.21,37.53,65.79,39,63.12c0.37-0.66,1.51-1.7,3.04-2.92c2.27-1.79,5.4-3.95,8.13-5.76c0,0,0,0.01,0.01,0.02
					c0.27,1,8.95,32.9,9.77,37.73c0.37,2.11,1.97,9.55,3.69,17.33C65.92,119.86,68.39,130.81,68.39,130.81z"/>
				<path class="st3" d="M52.42,128.84c0,0.39-0.3,0.71-0.68,0.71c-0.37,0-0.68-0.32-0.68-0.71c0-0.39,0.3-0.71,0.68-0.71
					C52.11,128.14,52.42,128.45,52.42,128.84z"/>
				<ellipse class="st3" cx="52.42" cy="127.14" rx="0.2" ry="0.21"/>
				<path class="st12" d="M56.4,110.57l-5.89,3.24l0-0.01c-0.01-0.05-0.08-0.24-0.18-0.56c-0.05-0.18-0.12-0.4-0.21-0.65
					c-0.01-0.02-0.01-0.04-0.02-0.06c0-0.01-0.01-0.02-0.01-0.03L56.4,110.57z"/>
				<polygon class="st12" points="43.88,72.7 43.97,76.24 50.86,75.28 47.7,71.67 				"/>
				<path class="st12" d="M103.61,126.19c-3.84,2.66-7.1,4.12-8.93,4.83c-1.42-2.17-3.14-4.81-4.77-7.38
					c-0.53-0.83-1.04-1.65-1.53-2.45c2.3-1.21,13.66-7.11,15.24-6.71c1.75,0.45,4.33,2.55,4.72,3.13
					C108.33,117.6,109.57,122.06,103.61,126.19z"/>
				<path class="st9" d="M108.32,117.59c-2.31-2.66-13.99,3.55-18.42,6.04c-1.06,0.6-1.7,0.98-1.7,0.98
					c-2.46-4.32-4.37-10.97-5.84-17.67c-1.71-7.77-2.82-15.58-3.52-19.86c-1.29-7.87-7.63-34.46-7.77-35.03c0,0,0-0.01,0-0.01
					s0,0,0,0c0,0,0,0,0,0c0.99,0.22,1.96,0.45,2.88,0.66c1.59,0.38,3.02,0.75,4.07,1.06c0.97,0.28,1.63,0.51,1.79,0.65
					c0.29,0.25,1.19,3.28,2.27,7.28c0.87,3.23,1.86,7.1,2.74,10.64c0.04,0.19,0.09,0.37,0.13,0.55c0.31,1.25,0.61,2.46,0.87,3.57
					c0.74,3.05,1.28,5.43,1.42,6.25c0.03,0.15,0.05,0.32,0.07,0.51c0,0.07,0.01,0.14,0.01,0.21c0,0.01,0,0.02,0,0.03
					c0.04,0.6,0.13,1.25,0.24,1.94c0.92,5.47,4.04,13.46,7.67,18.36c0.72,0.97,1.45,1.82,2.2,2.5c0.31,0.29,0.62,0.55,0.94,0.77
					C103.13,110.43,107.43,116.32,108.32,117.59z"/>
				<path class="st12" d="M97.46,106.26l-9.09-2.27l6.89-0.22C95.98,104.73,96.71,105.58,97.46,106.26z"/>
				<path class="st12" d="M87.59,85.41c-1.63,7.08-5.23,21.54-5.23,21.54l-2.02-29.97l-6.73-23.98c0,0,0.13-0.11,0.36-0.29
					c1.59,0.38,3.02,0.75,4.07,1.06c0.97,0.28,1.63,0.51,1.79,0.65c0.29,0.25,1.19,3.28,2.27,7.28c0.87,3.23,1.86,7.1,2.74,10.64
					c0.04,0.19,0.09,0.37,0.13,0.55c0.31,1.25,0.61,2.46,0.87,3.57c0.74,3.05,1.28,5.43,1.42,6.25c0.03,0.15,0.05,0.32,0.07,0.51
					c0,0.07,0.01,0.14,0.01,0.21c0,0.01,0,0.02,0,0.03C87.39,84.07,87.48,84.72,87.59,85.41z"/>
				<path class="st10" d="M44.96,77.79l1.63-3.17l-3.53,0.89c-0.25-2.54-0.76-10.84-1.02-15.3c-0.11-1.74-0.17-2.9-0.17-2.9
					l8.3-2.86c0,0,0,0.01,0.01,0.02c0.27,1,8.95,32.9,9.77,37.73c0.37,2.11,1.97,9.55,3.69,17.33
					C57.41,102.83,44.96,77.79,44.96,77.79z"/>
				<path class="st10" d="M84.97,72.9L86,73.78c0,0-0.05,1-0.16,2.69c-0.4,6.22-1.54,21.73-3.48,30.49
					c-1.71-7.77-2.82-15.58-3.52-19.86c-0.99-6.03-4.94-23.02-6.8-30.91c-0.57-2.42-0.94-3.98-0.97-4.11c0-0.01,0-0.01,0-0.01
					s0,0,0,0c0.15,0.01,4.77,0.25,6.5,0.83l0.45,0.89l1.24,2.43l2.81,5.5l0,0l5.28,10.33l-2.53,0.31l-0.45,0.06L84.97,72.9z"/>
				<path class="st6" d="M79.28,56.21l-1.24-2.43l-0.45-0.89c-1.73-0.58-6.35-0.82-6.5-0.83c0,0,0,0,0,0s0,0,0,0.01
					c0.03,0.13,0.41,1.7,0.97,4.11C75.04,56.8,78.17,57.14,79.28,56.21z"/>
				<path class="st15" d="M77.07,78.22c-0.57-0.66-1.22-1.27-2.03-2.05c-0.67-0.64-1.44-1.36-2.38-2.32
					c-3.76-3.83-5.23-9.45-5.45-11.12c-0.27-2.08-1.48-3.66-6.81-8.87c-4.38-4.29-7.31-10.72-8.1-12.57
					c-0.09,0.02-0.19,0.03-0.28,0.04c0.74,1.76,3.72,8.36,8.19,12.74c5.27,5.16,6.47,6.7,6.73,8.7c0.22,1.69,1.71,7.39,5.53,11.28
					c0.94,0.96,1.71,1.69,2.39,2.33c0.97,0.92,1.7,1.61,2.34,2.43C77.16,78.62,77.11,78.42,77.07,78.22z"/>
				<path class="st15" d="M74.27,44.46c-0.12,0.11-0.23,0.21-0.36,0.32c-0.61,2.55-2.01,7.56-4.3,11.11c-3.23,5-2.77,6.39-2.75,6.45
					l0.25-0.1c0-0.01-0.37-1.39,2.73-6.19C72.28,52.28,73.71,46.87,74.27,44.46z"/>
				<path class="st15" d="M65.98,60.73c0,0,1.1-0.34,1.76-0.12l-0.37,1.68l-0.8,0.04L65.98,60.73z"/>
			</g>
		</g>
	</g>
	<path class="st16" d="M152.46,103.3c-0.71-2.69-18.32-8-26.7-10.38c1.21-5.1,1.86-10.44,1.86-15.93
		c0-29.62-18.68-54.66-44.34-62.83c-0.47-2.92-1.14-6.39-1.91-8.3c-1.5-3.73-15.71-10.02-27.5-4.91
		C45.45,4.59,43.24,11.85,42.66,15.7C19.23,25.17,2.6,49.04,2.6,76.99c0,36.26,27.99,65.65,62.51,65.65
		c22.8,0,42.74-12.82,53.66-31.97c5.45,2.53,18.61,8.41,23.96,5.6C149.47,112.73,153.4,106.84,152.46,103.3z"/>
	<g>
		<path class="st3" d="M23.63,59.49c0,0-6.95-6.19-5.03-8.91c1.92-2.72,3.85,1.42,3.85,1.42s1-4.95,3.05-3.22
			C27.55,50.52,23.63,59.49,23.63,59.49z"/>
		<path class="st3" d="M26,45.29c0,0-1.05-4.31,0.38-4.8c1.43-0.49,1.1,1.63,1.1,1.63s1.65-1.6,1.98-0.36
			C29.79,43,26,45.29,26,45.29z"/>
	</g>
	<g>
		<g>
			<g>
				<g>
					<path class="st3" d="M100.39,56.47c-0.12,0.75-0.87,1.25-1.68,1.11c-0.81-0.14-1.37-0.86-1.26-1.61
						c0.12-0.75,0.87-1.24,1.68-1.11C99.94,55,100.5,55.72,100.39,56.47z"/>
				</g>
				<g>
					<path class="st3" d="M107.61,61.53c-0.12,0.75-0.87,1.24-1.68,1.11c-0.81-0.14-1.37-0.86-1.26-1.61
						c0.12-0.75,0.87-1.24,1.68-1.11C107.17,60.06,107.73,60.78,107.61,61.53z"/>
				</g>
				<g>
					<polygon class="st3" points="100.14,55.9 101.29,47.14 108.96,52.94 108.78,54.06 107.61,61.53 107.3,61.24 108.12,54.08 
						101.55,48.99 100.39,56.47 					"/>
				</g>
			</g>
		</g>
		<g>
			<g>
				<g>
					<g>
						<path class="st3" d="M94.24,40.35c0.06,0.74-0.54,1.4-1.34,1.47c-0.8,0.07-1.5-0.47-1.56-1.21s0.54-1.4,1.34-1.47
							C93.48,39.07,94.18,39.61,94.24,40.35z"/>
					</g>
					<g>
						<polygon class="st3" points="93.88,39.87 94.24,40.35 93.64,32.98 92.97,31.29 						"/>
					</g>
				</g>
			</g>
			<path class="st3" d="M93.62,33.46c0,0,1.25,0.48,2.47-0.1c1.47-0.71,2.9-0.65,2.9-0.65s-1.61-0.93-2.99-0.55
				c-1.53,0.43-3.02-0.86-3.02-0.86L93.62,33.46z"/>
		</g>
	</g>
</g>
</svg>
